<svg width="18" height="4" viewBox="0 0 18 4" fill="none" xmlns="http://www.w3.org/2000/svg">
<path fill-rule="evenodd" clip-rule="evenodd" d="M2 4C3.10547 4 4 3.10547 4 2C4 0.894531 3.10547 0 2 0C0.894531 0 0 0.894531 0 2C0 2.65234 0.310547 3.23047 0.792969 3.5957C1.12891 3.84961 1.54688 4 2 4ZM10.1328 3.5918C9.79688 3.84766 9.37695 4 8.92188 4C8.41211 4 7.94727 3.81055 7.59375 3.49609C7.18164 3.13086 6.92188 2.5957 6.92188 2C6.92188 0.894531 7.81641 0 8.92188 0C10.0273 0 10.9219 0.894531 10.9219 2C10.9219 2.65039 10.6133 3.22656 10.1328 3.5918ZM17.8477 2C17.8477 3.10547 16.9531 4 15.8477 4C15.3789 4 14.9473 3.83984 14.6074 3.57031C14.1445 3.20312 13.8477 2.63672 13.8477 2C13.8477 0.894531 14.7422 0 15.8477 0C16.9531 0 17.8477 0.894531 17.8477 2Z" fill="#038992"/>
</svg>
