<?xml version="1.0" encoding="utf-8"?>
<!-- Generator: Adobe Illustrator 21.1.0, SVG Export Plug-In . SVG Version: 6.00 Build 0)  -->
<svg version="1.1" id="Слой_1" xmlns="http://www.w3.org/2000/svg" xmlns:xlink="http://www.w3.org/1999/xlink" x="0px" y="0px"
	 viewBox="0 0 31 26" style="enable-background:new 0 0 31 26;" xml:space="preserve">
<style type="text/css">
	.st0{fill:#BCBCBC;}
	.st1{fill:#FFFFFF;filter:url(#Adobe_OpacityMaskFilter);}
	.st2{mask:url(#path-4-inside-1);fill:#BCBCBC;}
	.st3{fill:#FFFFFF;filter:url(#Adobe_OpacityMaskFilter_1_);}
	.st4{mask:url(#path-6-inside-2);fill:#BCBCBC;}
</style>
<path class="st0" d="M27,16H4V3c0-1.7,1.3-3,3-3h17c1.7,0,3,1.3,3,3V16z M5,15h21V3c0-1.1-0.9-2-2-2H7C5.9,1,5,1.9,5,3V15z"/>
<polygon class="st0" points="5.3,26 4,26 4,23 6,23 "/>
<polygon class="st0" points="27,26 25.7,26 25,23 27,23 "/>
<defs>
	<filter id="Adobe_OpacityMaskFilter" filterUnits="userSpaceOnUse" x="-1" y="10" width="7" height="15">
		<feColorMatrix  type="matrix" values="1 0 0 0 0  0 1 0 0 0  0 0 1 0 0  0 0 0 1 0"/>
	</filter>
</defs>
<mask maskUnits="userSpaceOnUse" x="-1" y="10" width="7" height="15" id="path-4-inside-1">
	<path class="st1" d="M5,13.7c0,0,0-0.1,0-0.1C5,12.2,3.9,11,2.5,11S0,12.2,0,13.6c0,0.8,0.3,1.4,0.8,1.9c0.1,0.1,0.3,0.2,0.4,0.3
		V21c0,1.7,1.3,3,3,3H5V13.7z"/>
</mask>
<path class="st2" d="M0.8,15.5l-0.7,0.7l0,0L0.8,15.5z M1.2,15.9h1v-0.6L1.8,15L1.2,15.9z M5,24v1h1v-1H5z M4,13.6
	C4,13.6,4,13.6,4,13.6C4,13.6,4,13.6,4,13.6c0,0,0,0.1,0,0.1h2c0,0,0,0,0,0c0,0,0,0,0,0c0,0,0,0,0-0.1H4z M2.5,12
	C3.3,12,4,12.7,4,13.6h2c0-2-1.5-3.6-3.5-3.6V12z M1,13.6C1,12.7,1.7,12,2.5,12v-2c-2,0-3.5,1.6-3.5,3.6H1z M1.5,14.8
	C1.2,14.5,1,14.1,1,13.6h-2c0,1,0.4,2,1.1,2.6L1.5,14.8z M1.8,15c-0.1-0.1-0.2-0.1-0.3-0.2l-1.4,1.4c0.2,0.2,0.4,0.3,0.6,0.5L1.8,15
	z M2.2,21v-5.1h-2V21H2.2z M4.2,23c-1.1,0-2-0.9-2-2h-2c0,2.2,1.8,4,4,4V23z M5,23H4.2v2H5V23z M4,13.7V24h2V13.7H4z"/>
<defs>
	<filter id="Adobe_OpacityMaskFilter_1_" filterUnits="userSpaceOnUse" x="25" y="10" width="7" height="15">
		<feColorMatrix  type="matrix" values="1 0 0 0 0  0 1 0 0 0  0 0 1 0 0  0 0 0 1 0"/>
	</filter>
</defs>
<mask maskUnits="userSpaceOnUse" x="25" y="10" width="7" height="15" id="path-6-inside-2">
	<path class="st3" d="M26,13.7c0,0,0-0.1,0-0.1c0-1.4,1.1-2.6,2.5-2.6s2.5,1.2,2.5,2.6c0,1-0.5,1.8-1.2,2.3V21c0,1.7-1.3,3-3,3H26
		V13.7z"/>
</mask>
<path class="st4" d="M29.8,15.9L29.2,15l-0.5,0.3v0.6H29.8z M26,24h-1v1h1V24z M25,13.6C25,13.6,25,13.7,25,13.6c0,0.1,0,0.1,0,0.1
	h2c0,0,0-0.1,0-0.1c0,0,0,0,0,0c0,0,0,0,0,0H25z M28.5,10c-2,0-3.5,1.6-3.5,3.6h2c0-0.9,0.7-1.6,1.5-1.6V10z M32,13.6
	c0-2-1.5-3.6-3.5-3.6v2c0.8,0,1.5,0.7,1.5,1.6H32z M30.3,16.7c1-0.6,1.7-1.8,1.7-3.1h-2c0,0.6-0.3,1.1-0.8,1.4L30.3,16.7z M30.8,21
	v-5.1h-2V21H30.8z M26.8,25c2.2,0,4-1.8,4-4h-2c0,1.1-0.9,2-2,2V25z M26,25h0.8v-2H26V25z M25,13.7V24h2V13.7H25z"/>
<path class="st0" d="M27,24H4v-3h23V24z M5,23h21v-1H5V23z"/>
<path class="st0" d="M27,22H4v-7h23V22z M5,21h21v-5H5V21z"/>
</svg>
