<?xml version="1.0" encoding="utf-8"?>
<!-- Generator: Adobe Illustrator 21.1.0, SVG Export Plug-In . SVG Version: 6.00 Build 0)  -->
<svg version="1.1" id="Слой_1" xmlns="http://www.w3.org/2000/svg" xmlns:xlink="http://www.w3.org/1999/xlink" x="0px" y="0px"
	 viewBox="0 0 32 17" style="enable-background:new 0 0 32 17;" xml:space="preserve">
<style type="text/css">
	.st0{fill:#FF8C48;}
</style>
<path class="st0" d="M30.5,5h-29C0.7,5,0,4.3,0,3.5S0.7,2,1.5,2h29C31.3,2,32,2.7,32,3.5S31.3,5,30.5,5z M1.5,3C1.2,3,1,3.2,1,3.5
	S1.2,4,1.5,4h29C30.8,4,31,3.8,31,3.5S30.8,3,30.5,3H1.5z"/>
<path class="st0" d="M19,16h-6C6.6,16,1.3,11,1,4.5L1,4h30l0,0.5C30.7,11,25.4,16,19,16z M2,5c0.5,5.6,5.2,10,11,10h6
	c5.7,0,10.5-4.4,11-10H2z"/>
<rect x="1" y="1" class="st0" width="1" height="2"/>
<rect x="2" class="st0" width="1" height="3"/>
<rect x="2" class="st0" width="3" height="1"/>
<polygon class="st0" points="10.3,17 9,17 9,15 11,15 "/>
<polygon class="st0" points="23,17 21.7,17 21,15 23,15 "/>
</svg>
