<?xml version="1.0" encoding="utf-8"?>
<!-- Generator: Adobe Illustrator 21.1.0, SVG Export Plug-In . SVG Version: 6.00 Build 0)  -->
<svg version="1.1" id="Слой_1" xmlns="http://www.w3.org/2000/svg" xmlns:xlink="http://www.w3.org/1999/xlink" x="0px" y="0px"
	 viewBox="0 0 32 19" style="enable-background:new 0 0 32 19;" xml:space="preserve">
<style type="text/css">
	.st0{fill:#BCBCBC;}
</style>
<path class="st0" d="M32,17H0v-4h32V17z M1,16h30v-2H1V16z"/>
<polygon class="st0" points="3.3,19 2,19 2,17 4,17 "/>
<polygon class="st0" points="30,19 28.7,19 28,17 30,17 "/>
<path class="st0" d="M32,14H0v-2c0-1.7,1.3-3,3-3h26c1.7,0,3,1.3,3,3V14z M1,13h30v-1c0-1.1-0.9-2-2-2H3c-1.1,0-2,0.9-2,2V13z"/>
<path class="st0" d="M29,10H3V2c0-1.1,0.9-2,2-2h22c1.1,0,2,0.9,2,2V10z M4,9h24V2c0-0.6-0.4-1-1-1H5C4.4,1,4,1.4,4,2V9z"/>
<path class="st0" d="M14,9.8H5.3V6.9c0-0.6,0.4-1,1-1H13c0.6,0,1,0.4,1,1V9.8z M6.3,8.8H13V6.9H6.3V8.8z"/>
<path class="st0" d="M26.7,9.8H18V6.9c0-0.6,0.4-1,1-1h6.7c0.6,0,1,0.4,1,1V9.8z M19,8.8h6.7V6.9H19V8.8z"/>
</svg>
