<svg width="16" height="16" viewBox="0 0 16 16" fill="none" xmlns="http://www.w3.org/2000/svg">
<path fill-rule="evenodd" clip-rule="evenodd" d="M0 1.97266C0 1.41992 0.447266 0.972656 1 0.972656H15C15.5527 0.972656 16 1.41992 16 1.97266V2.96875C16 3.21875 15.9082 3.44727 15.7578 3.62109C15.5742 3.83398 15.3027 3.96875 15 3.96875H1C0.447266 3.96875 0 3.52148 0 2.96875V1.97266ZM0 7.96289C0 7.41016 0.447266 6.96289 1 6.96289H15C15.5527 6.96289 16 7.41016 16 7.96289V8.95898C16 9.51172 15.5527 9.95898 15 9.95898H1C0.447266 9.95898 0 9.51172 0 8.95898V7.96289ZM1 12.9551C0.447266 12.9551 0 13.4023 0 13.9551V14.9512C0 15.5039 0.447266 15.9512 1 15.9512H15C15.2031 15.9512 15.3926 15.8906 15.5488 15.7871C15.8203 15.6094 16 15.3008 16 14.9512V13.9551C16 13.4023 15.5527 12.9551 15 12.9551H1Z" fill="#BCBCBC"/>
</svg>
