<?xml version="1.0" encoding="utf-8"?>
<!-- Generator: Adobe Illustrator 21.1.0, SVG Export Plug-In . SVG Version: 6.00 Build 0)  -->
<svg version="1.1" id="Слой_1" xmlns="http://www.w3.org/2000/svg" xmlns:xlink="http://www.w3.org/1999/xlink" x="0px" y="0px"
	 viewBox="0 0 19 32" style="enable-background:new 0 0 19 32;" xml:space="preserve">
<style type="text/css">
	.st0{fill:#BCBCBC;}
</style>
<path class="st0" d="M17,21H2c-1.1,0-2-0.9-2-2s0.9-2,2-2h15c1.1,0,2,0.9,2,2S18.1,21,17,21z M2,18c-0.6,0-1,0.4-1,1s0.4,1,1,1h15
	c0.6,0,1-0.4,1-1s-0.4-1-1-1H2z"/>
<polygon class="st0" points="3.4,32 2,32 2,20 4.1,20 "/>
<polygon class="st0" points="17,32 15.6,32 14.9,20 17,20 "/>
<path class="st0" d="M17,18H2V4c0-2.2,1.8-4,4-4h7c2.2,0,4,1.8,4,4V18z M3,17h13V4c0-1.7-1.3-3-3-3H6C4.3,1,3,2.3,3,4V17z"/>
</svg>
