<svg width="16" height="16" viewBox="0 0 16 16" fill="none" xmlns="http://www.w3.org/2000/svg">
<path d="M15.4713 8C15.4713 12.143 12.119 15.5 7.98564 15.5C3.85228 15.5 0.5 12.143 0.5 8C0.5 3.85702 3.85228 0.5 7.98564 0.5C12.119 0.5 15.4713 3.85702 15.4713 8Z" stroke="#616161"/>
<path d="M7.98633 5V9H9.98274" stroke="#616161" stroke-linecap="round"/>
<path d="M7.48633 2C7.48633 2.27614 7.71019 2.5 7.98633 2.5C8.26247 2.5 8.48633 2.27614 8.48633 2H7.48633ZM7.48633 1V2H8.48633V1H7.48633Z" fill="#616161"/>
<path d="M7.48633 14C7.48633 13.7239 7.71019 13.5 7.98633 13.5C8.26247 13.5 8.48633 13.7239 8.48633 14H7.48633ZM7.48633 15V14H8.48633V15H7.48633Z" fill="#616161"/>
<path d="M1.99625 8.5C2.27239 8.5 2.49625 8.27614 2.49625 8C2.49625 7.72386 2.27239 7.5 1.99625 7.5L1.99625 8.5ZM0.998047 8.5L1.99625 8.5L1.99625 7.5L0.998047 7.5L0.998047 8.5Z" fill="#616161"/>
<path d="M13.9745 8.5C13.6983 8.5 13.4745 8.27614 13.4745 8C13.4745 7.72386 13.6983 7.5 13.9745 7.5L13.9745 8.5ZM14.9727 8.5L13.9745 8.5L13.9745 7.5L14.9727 7.5L14.9727 8.5Z" fill="#616161"/>
<path d="M4.10463 12.5953C4.29972 12.3999 4.29972 12.083 4.10463 11.8876C3.90955 11.6922 3.59325 11.6922 3.39816 11.8876L4.10463 12.5953ZM3.39816 13.3031L4.10463 12.5953L3.39816 11.8876L2.69168 12.5953L3.39816 13.3031Z" fill="#616161"/>
<path d="M12.5725 4.11239C12.3775 4.30782 12.0612 4.30782 11.8661 4.11239C11.671 3.91695 11.671 3.60009 11.8661 3.40465L12.5725 4.11239ZM13.279 3.40465L12.5725 4.11239L11.8661 3.40465L12.5725 2.69691L13.279 3.40465Z" fill="#616161"/>
<path d="M12.5725 11.8876C12.3775 11.6922 12.0612 11.6922 11.8661 11.8876C11.671 12.083 11.671 12.3999 11.8661 12.5953L12.5725 11.8876ZM13.279 12.5953L12.5725 11.8876L11.8661 12.5953L12.5725 13.3031L13.279 12.5953Z" fill="#616161"/>
<path d="M4.10464 3.40465C4.29972 3.60009 4.29972 3.91695 4.10464 4.11239C3.90955 4.30782 3.59325 4.30782 3.39816 4.11239L4.10464 3.40465ZM3.39816 2.69691L4.10464 3.40465L3.39816 4.11239L2.69168 3.40465L3.39816 2.69691Z" fill="#616161"/>
</svg>
