<?xml version="1.0" encoding="utf-8"?>
<!-- Generator: Adobe Illustrator 21.1.0, SVG Export Plug-In . SVG Version: 6.00 Build 0)  -->
<svg version="1.1" id="Слой_1" xmlns="http://www.w3.org/2000/svg" xmlns:xlink="http://www.w3.org/1999/xlink" x="0px" y="0px"
	 viewBox="0 0 32 17" style="enable-background:new 0 0 32 17;" xml:space="preserve">
<style type="text/css">
	.st0{fill:#FF8C48;}
	.st1{fill:#FFFFFF;filter:url(#Adobe_OpacityMaskFilter);}
	.st2{mask:url(#path-2-inside-1);fill:#FF8C48;}
	.st3{fill:#FFFFFF;filter:url(#Adobe_OpacityMaskFilter_1_);}
	.st4{mask:url(#path-4-inside-2);fill:#FF8C48;}
</style>
<path class="st0" d="M29,9H3V3c0-1.7,1.3-3,3-3h20c1.7,0,3,1.3,3,3V9z M4,8h24V3c0-1.1-0.9-2-2-2H6C4.9,1,4,1.9,4,3V8z"/>
<defs>
	<filter id="Adobe_OpacityMaskFilter" filterUnits="userSpaceOnUse" x="-1" y="3.7" width="6" height="12">
		<feColorMatrix  type="matrix" values="1 0 0 0 0  0 1 0 0 0  0 0 1 0 0  0 0 0 1 0"/>
	</filter>
</defs>
<mask maskUnits="userSpaceOnUse" x="-1" y="3.7" width="6" height="12" id="path-2-inside-1">
	<path class="st1" d="M4,6.7c0-1.1-0.9-2-2-2s-2,0.9-2,2c0,0.9,0.6,1.6,1.3,1.9V12c0,1.5,1.2,2.7,2.7,2.7V6.7z"/>
</mask>
<path class="st2" d="M1.3,8.6h1V7.8L1.7,7.6L1.3,8.6z M4,14.7v1h1v-1H4z M2,5.7c0.6,0,1,0.4,1,1h2c0-1.7-1.3-3-3-3V5.7z M1,6.7
	c0-0.6,0.4-1,1-1v-2c-1.7,0-3,1.3-3,3H1z M1.7,7.6C1.3,7.5,1,7.1,1,6.7h-2C-1,8-0.2,9.1,1,9.5L1.7,7.6z M2.3,12V8.6h-2V12H2.3z
	 M4,13.7c-0.9,0-1.7-0.7-1.7-1.7h-2c0,2,1.6,3.7,3.7,3.7V13.7z M3,6.7v8h2v-8H3z"/>
<defs>
	<filter id="Adobe_OpacityMaskFilter_1_" filterUnits="userSpaceOnUse" x="27" y="3.7" width="6" height="12">
		<feColorMatrix  type="matrix" values="1 0 0 0 0  0 1 0 0 0  0 0 1 0 0  0 0 0 1 0"/>
	</filter>
</defs>
<mask maskUnits="userSpaceOnUse" x="27" y="3.7" width="6" height="12" id="path-4-inside-2">
	<path class="st3" d="M28,6.7c0-0.6,0.3-1.2,0.7-1.5c0.3-0.3,0.8-0.5,1.3-0.5c1.1,0,2,0.9,2,2c0,0.9-0.6,1.6-1.3,1.9V12
		c0,1.5-1.2,2.7-2.7,2.7V6.7z"/>
</mask>
<path class="st4" d="M28.7,5.1l0.6,0.8l0,0L28.7,5.1z M30.7,8.6h-1V7.8l0.7-0.2L30.7,8.6z M28,14.7v1h-1v-1H28z M29.4,5.9
	C29.1,6.1,29,6.4,29,6.7h-2c0-0.9,0.4-1.7,1.1-2.3L29.4,5.9z M30,5.7c-0.2,0-0.5,0.1-0.6,0.2l-1.3-1.5c0.5-0.4,1.2-0.7,1.9-0.7V5.7z
	 M31,6.7c0-0.6-0.4-1-1-1v-2c1.7,0,3,1.3,3,3H31z M30.3,7.6C30.7,7.5,31,7.1,31,6.7h2c0,1.3-0.8,2.4-2,2.8L30.3,7.6z M29.7,12V8.6h2
	V12H29.7z M28,13.7c0.9,0,1.7-0.7,1.7-1.7h2c0,2-1.6,3.7-3.7,3.7V13.7z M29,6.7v8h-2v-8H29z"/>
<polygon class="st0" points="29,17 28,17 27,15 29,15 "/>
<polygon class="st0" points="4,17 3,17 3,15 5,15 "/>
<path class="st0" d="M29,13H3V8h26V13z M4,12h24V9H4V12z"/>
<path class="st0" d="M29,15H3v-3h26V15z M4,14h24v-1H4V14z"/>
</svg>
