<?xml version="1.0" encoding="utf-8"?>
<!-- Generator: Adobe Illustrator 21.1.0, SVG Export Plug-In . SVG Version: 6.00 Build 0)  -->
<svg version="1.1" id="Слой_1" xmlns="http://www.w3.org/2000/svg" xmlns:xlink="http://www.w3.org/1999/xlink" x="0px" y="0px"
	 viewBox="0 0 24 32" style="enable-background:new 0 0 24 32;" xml:space="preserve">
<style type="text/css">
	.st0{fill:#BCBCBC;}
	.st1{fill:#FFFFFF;filter:url(#Adobe_OpacityMaskFilter);}
	.st2{mask:url(#path-4-inside-1);fill:#BCBCBC;}
	.st3{fill:#FFFFFF;filter:url(#Adobe_OpacityMaskFilter_1_);}
	.st4{mask:url(#path-6-inside-2);fill:#BCBCBC;}
</style>
<path class="st0" d="M12,30H0V0h12V30z M1,29h10V1H1V29z"/>
<path class="st0" d="M23,32H1v-3h22V32z M2,31h20v-1H2V31z"/>
<path class="st0" d="M24,30H11V0h13V30z M12,29h11V1H12V29z"/>
<defs>
	<filter id="Adobe_OpacityMaskFilter" filterUnits="userSpaceOnUse" x="8" y="12" width="3" height="6">
		<feColorMatrix  type="matrix" values="1 0 0 0 0  0 1 0 0 0  0 0 1 0 0  0 0 0 1 0"/>
	</filter>
</defs>
<mask maskUnits="userSpaceOnUse" x="8" y="12" width="3" height="6" id="path-4-inside-1">
	<path class="st1" d="M10,13v4H9v-4H10z"/>
</mask>
<path class="st2" d="M10,13h1v-1h-1V13z M10,17v1h1v-1H10z M9,17H8v1h1V17z M9,13v-1H8v1H9z M9,13v4h2v-4H9z M10,16H9v2h1V16z
	 M10,17v-4H8v4H10z M9,14h1v-2H9V14z"/>
<defs>
	<filter id="Adobe_OpacityMaskFilter_1_" filterUnits="userSpaceOnUse" x="12" y="12" width="3" height="6">
		<feColorMatrix  type="matrix" values="1 0 0 0 0  0 1 0 0 0  0 0 1 0 0  0 0 0 1 0"/>
	</filter>
</defs>
<mask maskUnits="userSpaceOnUse" x="12" y="12" width="3" height="6" id="path-6-inside-2">
	<path class="st3" d="M14,13v4h-1v-4H14z"/>
</mask>
<path class="st4" d="M14,13h1v-1h-1V13z M14,17v1h1v-1H14z M13,17h-1v1h1V17z M13,13v-1h-1v1H13z M13,13v4h2v-4H13z M14,16h-1v2h1
	V16z M14,17v-4h-2v4H14z M13,14h1v-2h-1V14z"/>
</svg>
