<?xml version="1.0" encoding="utf-8"?>
<!-- Generator: Adobe Illustrator 21.1.0, SVG Export Plug-In . SVG Version: 6.00 Build 0)  -->
<svg version="1.1" id="Слой_1" xmlns="http://www.w3.org/2000/svg" xmlns:xlink="http://www.w3.org/1999/xlink" x="0px" y="0px"
	 viewBox="0 0 18 22" style="enable-background:new 0 0 18 22;" xml:space="preserve">
<style type="text/css">
	.st0{fill:#BCBCBC;}
</style>
<path class="st0" d="M15.8,22H2.2L1.1,4h15.8L15.8,22z M3.2,21h11.6l1-16H2.2L3.2,21z"/>
<path class="st0" d="M17,5H1C0.4,5,0,4.6,0,4V3c0-0.6,0.4-1,1-1h16c0.6,0,1,0.4,1,1v1C18,4.6,17.6,5,17,5z M1,3v1h16V3H1z M1,2.5
	L1,3c0,0,0,0,0,0V2.5z"/>
<path class="st0" d="M11,3H7C6.4,3,6,2.6,6,2V1c0-0.6,0.4-1,1-1h4c0.6,0,1,0.4,1,1v1C12,2.6,11.6,3,11,3z M7,1v1h4V1H7z M7,0.5L7,1
	c0,0,0,0,0,0V0.5z"/>
<path class="st0" d="M5,18.5c-0.3,0-0.5-0.2-0.5-0.5V7c0-0.3,0.2-0.5,0.5-0.5S5.5,6.7,5.5,7v11C5.5,18.3,5.3,18.5,5,18.5z"/>
<path class="st0" d="M9,18.5c-0.3,0-0.5-0.2-0.5-0.5V7c0-0.3,0.2-0.5,0.5-0.5S9.5,6.7,9.5,7v11C9.5,18.3,9.3,18.5,9,18.5z"/>
<path class="st0" d="M13,18.5c-0.3,0-0.5-0.2-0.5-0.5V7c0-0.3,0.2-0.5,0.5-0.5s0.5,0.2,0.5,0.5v11C13.5,18.3,13.3,18.5,13,18.5z"/>
</svg>
