<svg width="78" height="10" viewBox="0 0 78 10" fill="none" xmlns="http://www.w3.org/2000/svg">
<path d="M61.4434 0V1.99304C62.1816 2.22282 62.8097 2.69644 63.2148 3.32877C63.62 3.96109 63.7757 4.71066 63.6538 5.44274C63.532 6.17481 63.1406 6.84139 62.5501 7.32266C61.9596 7.80393 61.2087 8.06832 60.4323 8.06832C59.6559 8.06832 58.9049 7.80393 58.3144 7.32266C57.7239 6.84139 57.3326 6.17481 57.2107 5.44274C57.0889 4.71066 57.2445 3.96109 57.6497 3.32877C58.0549 2.69644 58.683 2.22282 59.4211 1.99304V0C58.1314 0.239982 56.9816 0.929966 56.1958 1.93541C55.4101 2.94085 55.0447 4.18967 55.171 5.43835C55.2972 6.68703 55.9061 7.84605 56.8788 8.68941C57.8515 9.53277 59.1183 10 60.4323 10C61.7462 10 63.0131 9.53277 63.9858 8.68941C64.9585 7.84605 65.5673 6.68703 65.6936 5.43835C65.8199 4.18967 65.4545 2.94085 64.6687 1.93541C63.8829 0.929966 62.7331 0.239982 61.4434 0V0Z" fill="#878787"/>
<path d="M10.1214 2.07131V0.134766H2.12345H0V9.79818H2.12345H10.1214V7.86521H2.12345V5.93296H8.09757V3.99999L2.12345 4.01357V2.07131H10.1214Z" fill="#878787"/>
<path d="M34.6077 2.07131V0.134766H26.6098H24.4863V2.07131V9.79818H26.6098H34.6077V7.86879L26.6098 7.8695V5.93296H32.5832V3.99999H26.6098V2.07131H34.6077Z" fill="#878787"/>
<path fill-rule="evenodd" clip-rule="evenodd" d="M12.919 0.134766L16.2806 2.88512L14.7601 4.12728L12.2441 2.06916V0.134766H12.919ZM12.2441 9.79818V7.86521L21.6884 0.134766H22.3633V2.06702L18.8212 4.96611L22.3633 7.86521V9.79818H21.6877L17.3037 6.20899L12.919 9.79818H12.2441Z" fill="#878787"/>
<path d="M77.9495 0.134766H76.0515H75.877V5.93296L68.503 0.134766H67.8281V2.01982V9.79889H69.7254H69.9508V4.01071L77.3249 9.79889H77.9997V0.134766H77.9495Z" fill="#878787"/>
<path d="M48.3969 7.86807V0.134766H46.2734V9.78102V9.79818H46.2787V9.79889H53.6961V7.86807H48.3969Z" fill="#878787"/>
<path d="M38.8532 7.86807V0.134766H36.735H36.7305V9.7095H36.735V9.79818V9.79889H44.1532V7.86807H38.8532Z" fill="#878787"/>
</svg>
