<?xml version="1.0" encoding="utf-8"?>
<!-- Generator: Adobe Illustrator 21.1.0, SVG Export Plug-In . SVG Version: 6.00 Build 0)  -->
<svg version="1.1" id="Слой_1" xmlns="http://www.w3.org/2000/svg" xmlns:xlink="http://www.w3.org/1999/xlink" x="0px" y="0px"
	 viewBox="0 0 25 33" style="enable-background:new 0 0 25 33;" xml:space="preserve">
<style type="text/css">
	.st0{fill:#FF8C48;}
	.st1{fill:#FFFFFF;filter:url(#Adobe_OpacityMaskFilter);}
	.st2{mask:url(#path-5-inside-1);fill:#FF8C48;}
	.st3{fill:#FFFFFF;filter:url(#Adobe_OpacityMaskFilter_1_);}
	.st4{mask:url(#path-7-inside-2);fill:#FF8C48;}
	.st5{fill:#FFFFFF;filter:url(#Adobe_OpacityMaskFilter_2_);}
	.st6{mask:url(#path-11-inside-3);fill:#FF8C48;}
</style>
<path class="st0" d="M13,30H0V2h13V30z M1,29h11V3H1V29z"/>
<path class="st0" d="M25,30H12V2h13V30z M13,29h11V3H13V29z"/>
<path class="st0" d="M25,33H0v-4h25V33z M1,32h23v-2H1V32z"/>
<path class="st0" d="M25,3H0V0h25V3z M1,2h23V1H1V2z"/>
<defs>
	<filter id="Adobe_OpacityMaskFilter" filterUnits="userSpaceOnUse" x="13" y="13" width="3" height="5">
		<feColorMatrix  type="matrix" values="1 0 0 0 0  0 1 0 0 0  0 0 1 0 0  0 0 0 1 0"/>
	</filter>
</defs>
<mask maskUnits="userSpaceOnUse" x="13" y="13" width="3" height="5" id="path-5-inside-1">
	<path class="st1" d="M15,14v3h-1v-3H15z"/>
</mask>
<path class="st2" d="M15,14h1v-1h-1V14z M15,17v1h1v-1H15z M14,17h-1v1h1V17z M14,14v-1h-1v1H14z M14,14v3h2v-3H14z M15,16h-1v2h1
	V16z M15,17v-3h-2v3H15z M14,15h1v-2h-1V15z"/>
<defs>
	<filter id="Adobe_OpacityMaskFilter_1_" filterUnits="userSpaceOnUse" x="9" y="13" width="3" height="5">
		<feColorMatrix  type="matrix" values="1 0 0 0 0  0 1 0 0 0  0 0 1 0 0  0 0 0 1 0"/>
	</filter>
</defs>
<mask maskUnits="userSpaceOnUse" x="9" y="13" width="3" height="5" id="path-7-inside-2">
	<path class="st3" d="M11,14v3h-1v-3H11z"/>
</mask>
<path class="st4" d="M11,14h1v-1h-1V14z M11,17v1h1v-1H11z M10,17H9v1h1V17z M10,14v-1H9v1H10z M10,14v3h2v-3H10z M11,16h-1v2h1V16z
	 M11,17v-3H9v3H11z M10,15h1v-2h-1V15z"/>
<polygon class="st0" points="11,11 6,11 6,10 6.5,9.9 11,9.9 "/>
<path class="st0" d="M3,29.4H2V7c0-1.8,1.8-3.2,3.5-3.2S9,5.2,9,7v1.3H8V7c0-1.2-1.4-2.2-2.5-2.2S3,5.8,3,7V29.4z"/>
<defs>
	<filter id="Adobe_OpacityMaskFilter_2_" filterUnits="userSpaceOnUse" x="6" y="7" width="5" height="3">
		<feColorMatrix  type="matrix" values="1 0 0 0 0  0 1 0 0 0  0 0 1 0 0  0 0 0 1 0"/>
	</filter>
</defs>
<mask maskUnits="userSpaceOnUse" x="6" y="7" width="5" height="3" id="path-11-inside-3">
	<path class="st5" d="M8.5,8C7.7,8,7,8.4,7,9h3C10,8.4,9.3,8,8.5,8z"/>
</mask>
<path class="st6" d="M7,9H6v1h1V9z M10,9v1h1V9H10z M8,9c0,0.2-0.1,0.2,0,0.1C8.1,9.1,8.3,9,8.5,9V7C7.9,7,7.3,7.2,6.9,7.5
	C6.4,7.8,6,8.3,6,9H8z M8.5,9C8.7,9,8.9,9.1,9,9.1c0.1,0.1,0,0,0-0.1h2c0-0.7-0.4-1.2-0.9-1.5C9.7,7.2,9.1,7,8.5,7V9z M10,8H7v2h3V8
	z"/>
</svg>
