<?xml version="1.0" encoding="utf-8"?>
<!-- Generator: Adobe Illustrator 21.1.0, SVG Export Plug-In . SVG Version: 6.00 Build 0)  -->
<svg version="1.1" id="Слой_1" xmlns="http://www.w3.org/2000/svg" xmlns:xlink="http://www.w3.org/1999/xlink" x="0px" y="0px"
	 viewBox="0 0 33 27" style="enable-background:new 0 0 33 27;" xml:space="preserve">
<style type="text/css">
	.st0{fill:#FFFFFF;filter:url(#Adobe_OpacityMaskFilter);}
	.st1{mask:url(#path-1-inside-1);fill:#FF8C48;}
	.st2{fill:#FF8C48;}
</style>
<defs>
	<filter id="Adobe_OpacityMaskFilter" filterUnits="userSpaceOnUse" x="-1" y="-1" width="26" height="29">
		<feColorMatrix  type="matrix" values="1 0 0 0 0  0 1 0 0 0  0 0 1 0 0  0 0 0 1 0"/>
	</filter>
</defs>
<mask maskUnits="userSpaceOnUse" x="-1" y="-1" width="26" height="29" id="path-1-inside-1">
	<path class="st0" d="M24,3.2L8.7,0.3C8.4,0.2,8.2,0.2,8,0.1L7.5,0.1C7.3,0,7.2,0,7,0L6.9,0H6.6C4.5,0,2.6,1,1.4,2.7
		C1.1,3,0.9,3.3,0.7,3.7L0.5,4.1C0.2,4.9,0,5.8,0,6.8c0,2.4,1.2,4.4,3,5.7l0,0.1l0,0.2l-0.8,11c-0.1,0.8,0.2,1.6,0.7,2.2
		c0.3,0.3,0.7,0.6,1.1,0.8C4.3,26.9,4.7,27,5.2,27c0.7,0,1.4-0.2,1.9-0.6c0.4-0.3,0.7-0.7,0.9-1.1c0.2-0.4,0.3-0.8,0.3-1.3v-6
		c0.3,0,0.6-0.3,0.6-0.6c0-0.4-0.3-0.7-0.6-0.7v-0.6c0.3,0,0.6-0.3,0.6-0.6c0-0.4-0.3-0.7-0.6-0.7v-1.4L24,10.3V3.2z"/>
</mask>
<path class="st1" d="M8.7,0.3L8.4,1.3l0.1,0l0.1,0L8.7,0.3z M24,3.2h1V2.4l-0.8-0.2L24,3.2z M8,0.1l0.2-1l0,0l0,0L8,0.1z M7.5,0.1
	l0.2-1l0,0l0,0L7.5,0.1z M7,0L6.8,1l0.1,0l0.1,0L7,0z M6.9,0l0.2-1L7-1H6.9V0z M1.4,2.7l0.8,0.6l0,0L1.4,2.7z M0.7,3.7l-0.9-0.4l0,0
	l0,0L0.7,3.7z M0.5,4.1l-0.9-0.4l0,0l0,0L0.5,4.1z M3,12.4l1,0.1l0.1-0.6l-0.5-0.3L3,12.4z M3,12.6l-1-0.1l0,0l0,0L3,12.6z M3,12.7
	l-1-0.1l0,0l0,0L3,12.7z M2.1,23.7l-1-0.1l0,0L2.1,23.7z M2.9,25.9l0.8-0.7l0,0L2.9,25.9z M4,26.7l0.4-0.9l0,0L4,26.7z M7,26.4
	l-0.6-0.8l0,0L7,26.4z M7.9,25.2L7,24.8l0,0L7.9,25.2z M8.2,18v-1h-1v1H8.2z M8.2,16.7h-1v1h1V16.7z M8.2,16.1v-1h-1v1H8.2z
	 M8.2,14.8h-1v1h1V14.8z M8.2,13.4l-0.2-1l-0.8,0.2v0.8H8.2z M24,10.3l0.2,1l0.8-0.2v-0.8H24z M8.5,1.3l15.3,2.9l0.4-2L8.9-0.7
	L8.5,1.3z M7.8,1.1c0.2,0,0.4,0.1,0.6,0.2L9-0.6C8.7-0.7,8.5-0.8,8.2-0.8L7.8,1.1z M7.3,1l0.5,0.1l0.3-2L7.7-0.9L7.3,1z M6.9,1
	c0.1,0,0.3,0,0.4,0l0.3-2C7.5-1,7.3-1,7.1-1L6.9,1z M6.8,1L6.8,1l0.4-2L7.1-1L6.8,1z M6.6,1h0.3v-2H6.6V1z M2.2,3.3
	C3.2,1.9,4.8,1,6.6,1v-2C4.1-1,1.9,0.2,0.6,2.1L2.2,3.3z M1.6,4.1c0.1-0.3,0.3-0.6,0.5-0.9L0.6,2.1C0.3,2.4,0,2.8-0.2,3.2L1.6,4.1z
	 M1.4,4.5l0.2-0.4l-1.8-0.8l-0.2,0.4L1.4,4.5z M1,6.8c0-0.8,0.2-1.6,0.4-2.3l-1.8-0.8c-0.4,0.9-0.6,2-0.6,3H1z M3.6,11.6
	C2,10.5,1,8.8,1,6.8h-2c0,2.7,1.4,5.1,3.5,6.5L3.6,11.6z M4,12.7l0-0.1l-2-0.3l0,0.1L4,12.7z M4,12.8l0-0.2l-2-0.2l0,0.2L4,12.8z
	 M3.1,23.8l0.8-11l-2-0.2l-0.8,11L3.1,23.8z M3.6,25.3c-0.3-0.4-0.5-0.9-0.5-1.5l-2-0.1c-0.1,1.1,0.3,2.2,1,2.9L3.6,25.3z M4.4,25.8
	c-0.3-0.1-0.5-0.3-0.7-0.5l-1.5,1.3c0.4,0.4,0.9,0.8,1.4,1.1L4.4,25.8z M5.2,26c-0.3,0-0.6-0.1-0.8-0.2l-0.8,1.8
	C4,27.9,4.6,28,5.2,28V26z M6.4,25.6C6.1,25.8,5.6,26,5.2,26v2c0.9,0,1.8-0.3,2.5-0.9L6.4,25.6z M7,24.8c-0.1,0.3-0.3,0.5-0.6,0.7
	l1.2,1.6c0.5-0.4,0.9-0.9,1.2-1.5L7,24.8z M7.2,24c0,0.3-0.1,0.6-0.2,0.9l1.8,0.9c0.2-0.5,0.4-1.1,0.4-1.7H7.2z M7.2,18v6h2v-6H7.2z
	 M7.8,17.4C7.8,17.2,8,17,8.2,17v2c0.9,0,1.6-0.7,1.6-1.6H7.8z M8.2,17.7c-0.2,0-0.4-0.2-0.4-0.3h2c0-0.9-0.7-1.7-1.6-1.7V17.7z
	 M7.2,16.1v0.6h2v-0.6H7.2z M7.8,15.4c0-0.2,0.2-0.4,0.4-0.4v2c0.9,0,1.6-0.7,1.6-1.6H7.8z M8.2,15.8c-0.2,0-0.4-0.2-0.4-0.3h2
	c0-0.9-0.7-1.7-1.6-1.7V15.8z M7.2,13.4v1.4h2v-1.4H7.2z M23.8,9.3L8,12.4l0.4,2l15.8-3.1L23.8,9.3z M23,3.2v7.1h2V3.2H23z"/>
<path class="st2" d="M6.6,11.6c-2.6,0-4.7-2.2-4.7-4.8S4,1.9,6.6,1.9s4.7,2.2,4.7,4.8S9.2,11.6,6.6,11.6z M6.6,2.9
	c-2.1,0-3.7,1.7-3.7,3.8s1.7,3.8,3.7,3.8s3.7-1.7,3.7-3.8S8.7,2.9,6.6,2.9z"/>
<path class="st2" d="M30,4.6c-0.6,0-1.2-0.2-1.6-0.5c-0.8-0.4-1.4-0.7-2.8,0.2c-0.2,0.1-0.5,0.1-0.7-0.2c-0.1-0.2-0.1-0.5,0.2-0.7
	c1.8-1.1,2.9-0.6,3.7-0.2c0.7,0.3,1.3,0.6,2.3,0c0.2-0.1,0.5,0,0.7,0.2c0.1,0.2,0,0.5-0.2,0.7C31,4.5,30.4,4.6,30,4.6z"/>
<path class="st2" d="M30.6,7.4c-0.6,0-1.2-0.2-1.6-0.5c-0.8-0.4-1.4-0.7-2.8,0.2C26,7.3,25.7,7.2,25.6,7c-0.1-0.2-0.1-0.5,0.2-0.7
	c1.8-1.1,2.9-0.6,3.7-0.2c0.7,0.3,1.3,0.6,2.3,0c0.2-0.1,0.5,0,0.7,0.2c0.1,0.2,0,0.5-0.2,0.7C31.6,7.3,31.1,7.4,30.6,7.4z"/>
<path class="st2" d="M30,10.1c-0.6,0-1.2-0.2-1.6-0.5c-0.8-0.4-1.4-0.7-2.8,0.2c-0.2,0.1-0.5,0.1-0.7-0.2c-0.1-0.2-0.1-0.5,0.2-0.7
	c1.8-1.1,2.9-0.6,3.7-0.2c0.7,0.3,1.3,0.6,2.3,0c0.2-0.1,0.5,0,0.7,0.2c0.1,0.2,0,0.5-0.2,0.7C31,10,30.4,10.1,30,10.1z"/>
</svg>
