<svg width="18" height="16" viewBox="0 0 18 16" fill="none" xmlns="http://www.w3.org/2000/svg">
<path d="M16.9736 5.17466L16.227 5.24673L16.2296 5.27364L16.2341 5.30029L16.9736 5.17466ZM8.95582 2.99988L8.31867 3.39553L8.94885 4.41035L9.58902 3.40181L8.95582 2.99988ZM1.0267 5.17437L1.76575 5.30206L1.77054 5.27435L1.77324 5.24635L1.0267 5.17437ZM1.16271 6.76072L1.89018 6.5783L1.89015 6.57815L1.16271 6.76072ZM3.37792 10.2395L3.86499 9.66919L3.86456 9.66882L3.37792 10.2395ZM8.95212 15L8.46506 15.5703L8.94798 15.9828L9.43437 15.5744L8.95212 15ZM14.622 10.2398L15.1043 10.8142L15.1087 10.8104L14.622 10.2398ZM16.8372 6.76072L16.1098 6.5781L16.1098 6.57833L16.8372 6.76072ZM17.7201 5.10259C17.4534 2.33975 15.3465 0.25029 12.6434 0.25029V1.75029C14.4945 1.75029 16.0266 3.17118 16.227 5.24673L17.7201 5.10259ZM12.6434 0.25029C10.8736 0.25029 9.24388 1.14657 8.32261 2.59794L9.58902 3.40181C10.2309 2.39055 11.3792 1.75029 12.6434 1.75029V0.25029ZM9.59296 2.60422C8.68256 1.13814 7.11035 0.25 5.35651 0.25V1.75C6.5881 1.75 7.68005 2.36713 8.31867 3.39553L9.59296 2.60422ZM5.35651 0.25C2.65377 0.25 0.54655 2.33943 0.28016 5.10239L1.77324 5.24635C1.97334 3.17092 3.50573 1.75 5.35651 1.75V0.25ZM0.287648 5.04668C0.253034 5.24702 0.177357 5.91564 0.435266 6.94328L1.89015 6.57815C1.68772 5.77157 1.76344 5.31544 1.76575 5.30206L0.287648 5.04668ZM0.43523 6.94314C0.80785 8.4291 1.66489 9.76443 2.89129 10.8102L3.86456 9.66882C2.85635 8.80911 2.18099 7.73799 1.89018 6.5783L0.43523 6.94314ZM2.89086 10.8098L8.46506 15.5703L9.43919 14.4297L3.86499 9.66919L2.89086 10.8098ZM9.43437 15.5744L15.1043 10.8142L14.1398 9.66539L8.46988 14.4256L9.43437 15.5744ZM15.1087 10.8104C16.335 9.76443 17.1921 8.42942 17.5647 6.9431L16.1098 6.57833C15.819 7.73824 15.1436 8.80911 14.1353 9.66918L15.1087 10.8104ZM17.5647 6.94334C17.8227 5.91544 17.7467 5.24738 17.713 5.04904L16.2341 5.30029C16.2368 5.31565 16.3121 5.77235 16.1098 6.5781L17.5647 6.94334Z" fill="#616161"/>
</svg>
