<?xml version="1.0" encoding="utf-8"?>
<!-- Generator: Adobe Illustrator 21.1.0, SVG Export Plug-In . SVG Version: 6.00 Build 0)  -->
<svg version="1.1" id="Слой_1" xmlns="http://www.w3.org/2000/svg" xmlns:xlink="http://www.w3.org/1999/xlink" x="0px" y="0px"
	 viewBox="0 0 31 15" style="enable-background:new 0 0 31 15;" xml:space="preserve">
<style type="text/css">
	.st0{fill:#BCBCBC;}
	.st1{fill:#FFFFFF;filter:url(#Adobe_OpacityMaskFilter);}
	.st2{mask:url(#path-2-inside-1);fill:#BCBCBC;}
</style>
<path class="st0" d="M30,15H1c-0.6,0-1-0.4-1-1v-1c0-0.6,0.4-1,1-1h29c0.6,0,1,0.4,1,1v1C31,14.6,30.6,15,30,15z M1,13v1h29v-1H1z
	 M1,12.5L1,13c0,0,0,0,0,0V12.5z"/>
<defs>
	<filter id="Adobe_OpacityMaskFilter" filterUnits="userSpaceOnUse" x="-0.2" y="-0.6" width="32.2" height="14.6">
		<feColorMatrix  type="matrix" values="1 0 0 0 0  0 1 0 0 0  0 0 1 0 0  0 0 0 1 0"/>
	</filter>
</defs>
<mask maskUnits="userSpaceOnUse" x="-0.2" y="-0.6" width="32.2" height="14.6" id="path-2-inside-1">
	<path class="st1" d="M19.6,1l6-0.5c2-0.2,3.8,0.8,4.7,2.4C30.7,3.6,31,4.5,31,5.4V13H1.6c-0.7,0-1.1-0.8-0.7-1.3
		c2.1-3,4.9-5.5,8-7.4V3.7C9,3.3,9.3,3,9.6,3c0.3,0,0.6,0.2,0.7,0.6C13.2,2.1,16.3,1.2,19.6,1z M14.1,4.9c-1.6,0-2.3,2-1.1,2.9
		c0.3,0.3,0.7,0.4,1.1,0.4l0.7,0c0.2-0.9,1-1.6,2-1.6H20c0.5,0,0.9,0.2,1.2,0.4c0.3,0.2,0.5,0.5,0.7,0.9l5-0.2
		c0.7,0,1.3-0.6,1.3-1.4c0-0.3-0.1-0.5-0.2-0.7c-0.2-0.4-0.7-0.7-1.2-0.7H14.1z"/>
</mask>
<path class="st2" d="M25.6,0.5l0.1,1l0,0L25.6,0.5z M19.6,1l-0.1-1l0,0L19.6,1z M30.3,2.9l0.9-0.5l0,0L30.3,2.9z M31,13v1h1v-1H31z
	 M0.9,11.7l0.8,0.6l0,0L0.9,11.7z M9,4.3l0.5,0.9L10,4.9V4.3H9z M10.3,3.6l-1,0.2l0.2,1.3l1.2-0.6L10.3,3.6z M13.1,7.9l-0.6,0.8l0,0
	L13.1,7.9z M14.2,8.2l0,1l0,0L14.2,8.2z M14.9,8.2l0,1l0.8,0l0.2-0.8L14.9,8.2z M21.2,7l-0.6,0.8l0,0L21.2,7z M21.8,7.9l-0.9,0.4
	l0.3,0.7l0.7,0L21.8,7.9z M26.8,7.7l0,1l0,0L26.8,7.7z M27.9,5.6L27,6.1l0,0L27.9,5.6z M25.5-0.5l-6,0.5l0.2,2l6-0.5L25.5-0.5z
	 M31.1,2.3c-1.1-1.9-3.3-3.1-5.6-2.9l0.2,2c1.6-0.1,3,0.7,3.8,1.9L31.1,2.3z M32,5.4c0-1.1-0.3-2.2-0.9-3.1l-1.7,1
	C29.8,4,30,4.7,30,5.4H32z M32,13V5.4h-2V13H32z M1.6,14H31v-2H1.6V14z M0.1,11.1c-0.9,1.2,0,2.9,1.5,2.9v-2c0,0,0.1,0,0.1,0
	c0,0,0,0,0.1,0.1c0,0,0,0,0,0.1c0,0,0,0.1,0,0.1L0.1,11.1z M8.4,3.4c-3.3,1.9-6.1,4.5-8.3,7.7l1.6,1.1c2.1-2.9,4.7-5.3,7.7-7.1
	L8.4,3.4z M10,4.3V3.7H8v0.6H10z M10,3.7C10,3.9,9.8,4,9.6,4V2C8.7,2,8,2.8,8,3.7H10z M9.6,4C9.5,4,9.4,3.9,9.3,3.7l2-0.3
	C11.2,2.6,10.5,2,9.6,2V4z M19.5,0c-3.4,0.3-6.7,1.2-9.6,2.7l0.9,1.8c2.7-1.4,5.8-2.2,8.9-2.5L19.5,0z M13.7,7.1
	c-0.5-0.4-0.2-1.2,0.4-1.2v-2c-2.5,0-3.6,3.1-1.7,4.7L13.7,7.1z M14.2,7.2c-0.2,0-0.3,0-0.5-0.2l-1.3,1.5c0.5,0.4,1.2,0.6,1.8,0.6
	L14.2,7.2z M14.8,7.2l-0.7,0l0.1,2l0.7,0L14.8,7.2z M16.9,5.6c-1.5,0-2.7,1.1-2.9,2.4l2,0.4c0.1-0.5,0.5-0.8,1-0.8V5.6z M20,5.6
	h-3.1v2H20V5.6z M21.8,6.2c-0.5-0.4-1.1-0.6-1.8-0.6v2c0.2,0,0.4,0.1,0.6,0.2L21.8,6.2z M22.8,7.5c-0.2-0.5-0.5-1-1-1.3l-1.2,1.6
	c0.2,0.1,0.3,0.3,0.3,0.4L22.8,7.5z M26.7,6.7l-5,0.2l0.1,2l5-0.2L26.7,6.7z M27.1,6.3c0,0.2-0.2,0.4-0.4,0.4l0.1,2
	c1.3-0.1,2.3-1.1,2.3-2.4H27.1z M27,6.1c0,0.1,0.1,0.1,0.1,0.2h2c0-0.5-0.1-0.9-0.4-1.3L27,6.1z M26.7,5.9C26.8,5.9,27,6,27,6.1
	L28.7,5c-0.4-0.7-1.2-1.1-2-1.1V5.9z M14.1,5.9h12.6v-2H14.1V5.9z"/>
</svg>
