<?xml version="1.0" encoding="utf-8"?>
<!-- Generator: Adobe Illustrator 21.1.0, SVG Export Plug-In . SVG Version: 6.00 Build 0)  -->
<svg version="1.1" id="Слой_1" xmlns="http://www.w3.org/2000/svg" xmlns:xlink="http://www.w3.org/1999/xlink" x="0px" y="0px"
	 viewBox="0 0 33 32" style="enable-background:new 0 0 33 32;" xml:space="preserve">
<style type="text/css">
	.st0{fill:#BCBCBC;}
</style>
<path class="st0" d="M8.7,0.1c0,0,0-0.1,0.1-0.1c0,0,0.1,0,0.1,0C8.9,0,9,0.1,9,0.1v7.2c0,0,0,0.1,0,0.1c0,0-0.1,0.1-0.1,0.1
	c0,0-0.1,0-0.1-0.1c0,0,0-0.1,0-0.1V0.1z M5.8,5.9l0.1-1.3c0.1-0.7,0.2-1.4,0.5-2.1H6.3c-0.1,0-0.2-0.1-0.2-0.2s0.1-0.2,0.2-0.2h0.2
	c0,0,0,0,0.1,0c0.4-0.8,1-1.4,1.7-1.9c0.1,0,0.1-0.1,0.2,0c0.1,0,0.1,0.1,0.1,0.2v7.1H7.3C6.4,7.5,5.7,6.8,5.8,5.9z M7.2,3.2
	C7.2,3,7,3,6.9,3C6.7,3,6.5,3.2,6.5,3.4l0.1,3.1c0,0.2,0.1,0.3,0.3,0.3c0.2,0,0.3-0.1,0.3-0.3l0.1-1.2C7.1,5.2,7,5.1,7,4.9V4
	C7,3.9,7,3.8,7.1,3.7c0.1-0.1,0.1-0.1,0.2-0.1l0-0.2C7.3,3.3,7.3,3.2,7.2,3.2z"/>
<path class="st0" d="M14,10.5H3.5v-3H13c0,0,0,0,0,0l9,0l0,0l8.6,0L31.7,8c0.4,0.2,0.7,0.6,0.6,1c0,0.4-0.3,0.8-0.8,0.9l-1.2,0.3
	l-9.4,0V8.5l-7,0V10.5z M4.5,9.5H13v-1H4.5V9.5z M22,9.2l8.3,0l1-0.3l-1.1-0.4l-8.3,0V9.2z"/>
<path class="st0" d="M4.5,10.5h-4v-3h4V10.5z M1.5,9.5h2v-1h-2V9.5z"/>
<path class="st0" d="M22,19h-9V8h9V19z M14,18h7V9h-7V18z"/>
<path class="st0" d="M8,31v0.5h0.2l0.2-0.2L8,31z M6,30.5c-0.3,0-0.5,0.2-0.5,0.5s0.2,0.5,0.5,0.5V30.5z M8,30.5H6v1h2V30.5z
	 M25.1,9.2l-4,4.5l0.7,0.7l4-4.5L25.1,9.2z M17.7,18.3L7.6,30.7l0.8,0.6l10.1-12.4L17.7,18.3z"/>
<path class="st0" d="M27.5,31v0.5h-0.2l-0.2-0.2L27.5,31z M29.5,30.5c0.3,0,0.5,0.2,0.5,0.5s-0.2,0.5-0.5,0.5V30.5z M27.5,30.5h2v1
	h-2V30.5z M10.9,9.7l3,3.8l-0.8,0.6l-3-3.8L10.9,9.7z M17.8,18.3l10.1,12.4l-0.8,0.6L17,18.9L17.8,18.3z"/>
</svg>
