<?xml version="1.0" encoding="utf-8"?>
<!-- Generator: Adobe Illustrator 21.1.0, SVG Export Plug-In . SVG Version: 6.00 Build 0)  -->
<svg version="1.1" id="Слой_1" xmlns="http://www.w3.org/2000/svg" xmlns:xlink="http://www.w3.org/1999/xlink" x="0px" y="0px"
	 viewBox="0 0 28 31" style="enable-background:new 0 0 28 31;" xml:space="preserve">
<style type="text/css">
	.st0{fill:#BCBCBC;}
	.st1{fill:#FFFFFF;filter:url(#Adobe_OpacityMaskFilter);}
	.st2{mask:url(#path-3-inside-1);fill:#BCBCBC;}
</style>
<path class="st0" d="M16,25c-1.1,0-2-0.9-2-2V5c0-1.1,0.9-2,2-2c1.1,0,2,0.9,2,2v18C18,24.1,17.1,25,16,25z M16,4c-0.6,0-1,0.4-1,1
	v18c0,0.6,0.4,1,1,1s1-0.4,1-1V5C17,4.4,16.6,4,16,4z"/>
<path class="st0" d="M21,31H5c-0.6,0-1-0.4-1-1v-2h18v2C22,30.6,21.6,31,21,31z M5,29v1h16v-1H5z"/>
<defs>
	<filter id="Adobe_OpacityMaskFilter" filterUnits="userSpaceOnUse" x="-1.9" y="-1" width="24.9" height="31">
		<feColorMatrix  type="matrix" values="1 0 0 0 0  0 1 0 0 0  0 0 1 0 0  0 0 0 1 0"/>
	</filter>
</defs>
<mask maskUnits="userSpaceOnUse" x="-1.9" y="-1" width="24.9" height="31" id="path-3-inside-1">
	<path class="st1" d="M4,0H0l4,5.9V29h18V0H4.6H4z"/>
</mask>
<path class="st2" d="M0,0v-1h-1.9l1,1.6L0,0z M4,5.9h1V5.6L4.8,5.4L4,5.9z M4,29H3v1h1V29z M22,29v1h1v-1H22z M22,0h1v-1h-1V0z M0,1
	h4v-2H0V1z M4.8,5.4l-4-5.9l-1.7,1.1l4,5.9L4.8,5.4z M5,29V5.9H3V29H5z M22,28H4v2h18V28z M21,0v29h2V0H21z M4.6,1H22v-2H4.6V1z
	 M4,1h0.6v-2H4V1z"/>
<path class="st0" d="M24.7,21H21v-2.7h3.7c0.3,0,0.5-0.2,0.5-0.5V3.2c0-0.3-0.2-0.5-0.5-0.5H21V0h3.7C26.5,0,28,1.4,28,3.2v14.6
	C28,19.6,26.5,21,24.7,21z M22,20h2.7c1.2,0,2.3-1,2.3-2.2V3.2C27,2,26,1,24.7,1H22v0.7h2.7c0.8,0,1.5,0.7,1.5,1.5v14.6
	c0,0.8-0.7,1.5-1.5,1.5H22V20z"/>
</svg>
