<svg width="14" height="20" viewBox="0 0 14 20" fill="none" xmlns="http://www.w3.org/2000/svg">
<path d="M7 0.972656C3.14018 0.972656 -7.37319e-08 4.05519 -7.37319e-08 7.84412C-7.37319e-08 12.5463 6.26431 19.4494 6.53102 19.7409C6.78154 20.0148 7.21892 20.0144 7.46898 19.7409C7.73569 19.4494 14 12.5463 14 7.84412C13.9999 4.05519 10.8598 0.972656 7 0.972656ZM7 11.3013C5.05803 11.3013 3.47816 9.75044 3.47816 7.84412C3.47816 5.9378 5.05807 4.38693 7 4.38693C8.94193 4.38693 10.5218 5.93783 10.5218 7.84416C10.5218 9.75048 8.94193 11.3013 7 11.3013Z" fill="#BCBCBC"/>
</svg>
