<svg width="24" height="33" viewBox="0 0 24 33" fill="none" xmlns="http://www.w3.org/2000/svg">
<path fill-rule="evenodd" clip-rule="evenodd" d="M18.2852 15.3613C18.2852 15.334 18.2852 15.3086 18.2852 15.2812C18.2773 14.6309 18.1719 14.0039 17.9805 13.416C17.8672 13.0742 17.7266 12.7461 17.5586 12.4336C20.4023 14.2578 22.2852 17.4375 22.2852 21.0508C22.2852 24.5645 20.5078 27.6641 17.8008 29.5098C18.9922 28.1504 19.7148 26.3672 19.7148 24.4199C19.7148 23.3359 19.4922 22.3027 19.0898 21.3652C18.6641 20.3809 18.043 19.502 17.2734 18.7793C17.875 17.8594 18.2383 16.7656 18.2812 15.5957C18.2812 15.5176 18.2852 15.4395 18.2852 15.3613ZM14.1367 21.6055C14.5391 21.252 14.957 20.9121 15.3477 20.6152C15.6289 20.4004 15.8945 20.207 16.125 20.0449C16.7031 20.5938 17.168 21.2578 17.4961 22C17.8203 22.7402 18 23.5586 18 24.4199C18 27.75 15.3086 30.4395 12 30.4395C10.6914 30.4395 9.48047 30.0195 8.49609 29.3066C6.98438 28.2148 6 26.4355 6 24.4199C6 22.6992 6.71484 21.1484 7.86719 20.0508C8.35156 20.3691 8.96484 20.791 9.57812 21.252C9.62891 21.291 9.68359 21.3301 9.73438 21.3691C10.2031 21.7246 10.6641 22.0957 11.0664 22.4492C11.7109 23.0195 12.1992 23.5469 12.2852 23.8965C12.375 23.4629 12.793 22.9102 13.3516 22.3418C13.5938 22.0957 13.8594 21.8477 14.1367 21.6055ZM5.71484 15.5078C5.71484 15.459 5.71484 15.4102 5.71484 15.3613C5.71484 14.3027 5.97266 13.3086 6.44141 12.4336C3.59766 14.2578 1.71484 17.4375 1.71484 21.0508C1.71484 24.5645 3.49219 27.6641 6.19922 29.5098C5.75781 29.0059 5.38281 28.4453 5.08203 27.8398C4.57422 26.8086 4.28516 25.6465 4.28516 24.4199C4.28516 22.1953 5.22266 20.1895 6.72656 18.7793C6.10938 17.8379 5.74219 16.7109 5.71484 15.5078ZM14.4531 9.60547C13.9531 8.98242 13.4492 8.27539 12.9766 7.49805C12.8047 7.21875 12.6367 6.92773 12.4766 6.62695C12.332 6.35352 12.1914 6.07422 12.0547 5.78516C11.8281 6.18164 11.5938 6.56445 11.3555 6.92969C10.7148 7.92773 10.0195 8.86133 9.35547 9.67578C10.1562 9.30664 11.0586 9.10352 12 9.10352C12.0703 9.10352 12.1367 9.10742 12.2031 9.10742C13 9.13281 13.7539 9.30859 14.4531 9.60547ZM12.2852 0C12.2148 1.17773 11.8086 2.43945 11.2227 3.67773C9.88672 6.50781 7.60938 9.21875 6.28516 10.543C2.54297 12.5645 0 16.5137 0 21.0508C0 27.6504 5.37109 33 12 33C18.6289 33 24 27.6504 24 21.0508C24 16.5137 21.457 12.5645 17.7148 10.543C17.0391 9.98047 16.0859 9 15.168 7.71289C14.375 6.60156 13.6055 5.26172 13.0625 3.76367L12.9141 3.33203C12.8125 3.02344 12.7188 2.70898 12.6406 2.38867C12.4492 1.62109 12.3242 0.822266 12.2852 0ZM12 10.8105C9.47656 10.8105 7.42969 12.8477 7.42969 15.3613C7.42969 16.6309 7.94922 17.7754 8.78906 18.6016C9.53516 19.0977 10.5977 19.8477 11.5312 20.6055C11.7422 20.7734 11.9492 20.9473 12.1484 21.123C12.3477 20.9238 12.5508 20.7305 12.7539 20.5469C13.5898 19.7852 14.5352 19.0723 15.1992 18.6133C16.0508 17.7852 16.5703 16.6348 16.5703 15.3613C16.5703 12.8477 14.5234 10.8105 12 10.8105Z" fill="url(#paint0_linear)"/>
<defs>
<linearGradient id="paint0_linear" x1="12" y1="9.10345" x2="12" y2="21.6207" gradientUnits="userSpaceOnUse">
<stop stop-color="#40D6A2"/>
<stop offset="1" stop-color="#28C9C8"/>
</linearGradient>
</defs>
</svg>
