<svg width="16" height="17" viewBox="0 0 16 17" fill="none" xmlns="http://www.w3.org/2000/svg">
<path fill-rule="evenodd" clip-rule="evenodd" d="M0 1.97266C0 1.41992 0.447266 0.972656 1 0.972656H5C5.55273 0.972656 6 1.41992 6 1.97266V5.96484C6 6.51562 5.55273 6.96484 5 6.96484H1C0.447266 6.96484 0 6.51562 0 5.96484V1.97266ZM11 0.972656C10.4473 0.972656 10 1.41992 10 1.97266V5.96484C10 6.51562 10.4473 6.96484 11 6.96484H15C15.3418 6.96484 15.6426 6.79297 15.8223 6.5332C15.9336 6.37109 16 6.17578 16 5.96484V1.97266C16 1.41992 15.5527 0.972656 15 0.972656H11ZM11 10.959C10.4473 10.959 10 11.4062 10 11.959V15.9512C10 16.502 10.4473 16.9512 11 16.9512H15C15.5527 16.9512 16 16.502 16 15.9512V11.959C16 11.4062 15.5527 10.959 15 10.959H11ZM1 10.959C0.447266 10.959 0 11.4062 0 11.959V15.9512C0 16.502 0.447266 16.9512 1 16.9512H5C5.55273 16.9512 6 16.502 6 15.9512V11.959C6 11.4062 5.55273 10.959 5 10.959H1Z" fill="#616161"/>
</svg>
