<?xml version="1.0" encoding="utf-8"?>
<!-- Generator: Adobe Illustrator 21.1.0, SVG Export Plug-In . SVG Version: 6.00 Build 0)  -->
<svg version="1.1" id="Слой_1" xmlns="http://www.w3.org/2000/svg" xmlns:xlink="http://www.w3.org/1999/xlink" x="0px" y="0px"
	 viewBox="0 0 32 22" style="enable-background:new 0 0 32 22;" xml:space="preserve">
<style type="text/css">
	.st0{fill:#BCBCBC;}
	.st1{fill:#FFFFFF;filter:url(#Adobe_OpacityMaskFilter);}
	.st2{mask:url(#path-5-inside-1);fill:#BCBCBC;}
	.st3{fill:#FFFFFF;filter:url(#Adobe_OpacityMaskFilter_1_);}
	.st4{mask:url(#path-7-inside-2);fill:#BCBCBC;}
	.st5{fill:#FFFFFF;filter:url(#Adobe_OpacityMaskFilter_2_);}
	.st6{mask:url(#path-9-inside-3);fill:#BCBCBC;}
</style>
<path class="st0" d="M25,20H0V0h25V20z M1,19h23V1H1V19z"/>
<path class="st0" d="M32,20h-8V0h8V20z M25,19h6V1h-6V19z"/>
<path class="st0" d="M23,18H2V2h21V18z M3,17h19V3H3V17z"/>
<path class="st0" d="M30,18h-4v-3h4V18z M27,17h2v-1h-2V17z"/>
<defs>
	<filter id="Adobe_OpacityMaskFilter" filterUnits="userSpaceOnUse" x="25" y="12" width="6" height="3">
		<feColorMatrix  type="matrix" values="1 0 0 0 0  0 1 0 0 0  0 0 1 0 0  0 0 0 1 0"/>
	</filter>
</defs>
<mask maskUnits="userSpaceOnUse" x="25" y="12" width="6" height="3" id="path-5-inside-1">
	<path class="st1" d="M26,13h4v1h-4V13z"/>
</mask>
<path class="st2" d="M26,13v-1h-1v1H26z M30,13h1v-1h-1V13z M30,14v1h1v-1H30z M26,14h-1v1h1V14z M26,14h4v-2h-4V14z M29,13v1h2v-1
	H29z M30,13h-4v2h4V13z M27,14v-1h-2v1H27z"/>
<defs>
	<filter id="Adobe_OpacityMaskFilter_1_" filterUnits="userSpaceOnUse" x="25" y="10" width="6" height="3">
		<feColorMatrix  type="matrix" values="1 0 0 0 0  0 1 0 0 0  0 0 1 0 0  0 0 0 1 0"/>
	</filter>
</defs>
<mask maskUnits="userSpaceOnUse" x="25" y="10" width="6" height="3" id="path-7-inside-2">
	<path class="st3" d="M26,11h4v1h-4V11z"/>
</mask>
<path class="st4" d="M26,11v-1h-1v1H26z M30,11h1v-1h-1V11z M30,12v1h1v-1H30z M26,12h-1v1h1V12z M26,12h4v-2h-4V12z M29,11v1h2v-1
	H29z M30,11h-4v2h4V11z M27,12v-1h-2v1H27z"/>
<defs>
	<filter id="Adobe_OpacityMaskFilter_2_" filterUnits="userSpaceOnUse" x="25" y="8" width="6" height="3">
		<feColorMatrix  type="matrix" values="1 0 0 0 0  0 1 0 0 0  0 0 1 0 0  0 0 0 1 0"/>
	</filter>
</defs>
<mask maskUnits="userSpaceOnUse" x="25" y="8" width="6" height="3" id="path-9-inside-3">
	<path class="st5" d="M26,9h4v1h-4V9z"/>
</mask>
<path class="st6" d="M26,9V8h-1v1H26z M30,9h1V8h-1V9z M30,10v1h1v-1H30z M26,10h-1v1h1V10z M26,10h4V8h-4V10z M29,9v1h2V9H29z
	 M30,9h-4v2h4V9z M27,10V9h-2v1H27z"/>
<path class="st0" d="M28,7c-1.1,0-2-0.9-2-2s0.9-2,2-2s2,0.9,2,2S29.1,7,28,7z M28,4c-0.6,0-1,0.4-1,1s0.4,1,1,1s1-0.4,1-1
	S28.6,4,28,4z"/>
<polygon class="st0" points="2,22 1,22 1,20 3,20 "/>
<polygon class="st0" points="31,22 30,22 29,20 31,20 "/>
</svg>
