<svg width="18" height="18" viewBox="0 0 18 18" fill="none" xmlns="http://www.w3.org/2000/svg">
<path fill-rule="evenodd" clip-rule="evenodd" d="M10.502 2.33398C10.502 1.50586 9.83008 0.833984 9.00195 0.833984C8.17383 0.833984 7.50195 1.50586 7.50195 2.33398V7.5H2.33594C1.50781 7.5 0.835938 8.17188 0.835938 9C0.835938 9.82812 1.50781 10.5 2.33594 10.5H7.50195V15.668C7.50195 16.4961 8.17383 17.168 9.00195 17.168C9.83008 17.168 10.502 16.4961 10.502 15.668V10.5H15.6699C16.498 10.5 17.1699 9.82812 17.1699 9C17.1699 8.17188 16.498 7.5 15.6699 7.5H10.502V2.33398Z" fill="white"/>
</svg>
