<svg width="8" height="11" viewBox="0 0 8 11" fill="none" xmlns="http://www.w3.org/2000/svg">
<path d="M2.20117 5.95605V6.94043H6.21387V7.88379H2.20117V10.4062H0.875V7.88379H0.191406V6.94043H0.875V5.95605H0.191406V4.80762H0.875V0.384766H4.0127C4.91048 0.384766 5.58952 0.475911 6.0498 0.658203C6.51465 0.835938 6.88607 1.15267 7.16406 1.6084C7.44206 2.06413 7.58105 2.56771 7.58105 3.11914C7.58105 3.67513 7.47852 4.13542 7.27344 4.5C7.06836 4.86458 6.79492 5.15625 6.45312 5.375C6.11589 5.58919 5.72624 5.73958 5.28418 5.82617C4.84668 5.91276 4.39323 5.95605 3.92383 5.95605H2.20117ZM3.92383 4.80762C4.22917 4.80762 4.52083 4.78483 4.79883 4.73926C5.07682 4.68913 5.32064 4.60026 5.53027 4.47266C5.73991 4.34505 5.90625 4.17415 6.0293 3.95996C6.15234 3.74121 6.21387 3.46094 6.21387 3.11914C6.21387 2.82292 6.1569 2.57227 6.04297 2.36719C5.93359 2.16211 5.78092 1.99577 5.58496 1.86816C5.39355 1.736 5.16797 1.6403 4.9082 1.58105C4.64844 1.52181 4.36816 1.49219 4.06738 1.49219H2.20117V4.80762H3.92383Z" fill="#616161"/>
</svg>
