<?xml version="1.0" encoding="utf-8"?>
<!-- Generator: Adobe Illustrator 21.1.0, SVG Export Plug-In . SVG Version: 6.00 Build 0)  -->
<svg version="1.1" id="Слой_1" xmlns="http://www.w3.org/2000/svg" xmlns:xlink="http://www.w3.org/1999/xlink" x="0px" y="0px"
	 viewBox="0 0 32 32" style="enable-background:new 0 0 32 32;" xml:space="preserve">
<style type="text/css">
	.st0{fill:#BCBCBC;}
</style>
<path class="st0" d="M32,28H0V2c0-1.1,0.9-2,2-2h28c1.1,0,2,0.9,2,2V28z M1,27h30V2c0-0.6-0.4-1-1-1H2C1.4,1,1,1.4,1,2V27z"/>
<path class="st0" d="M30,32H2c-1.1,0-2-0.9-2-2v-3h32v3C32,31.1,31.1,32,30,32z M1,28v2c0,0.6,0.4,1,1,1h28c0.6,0,1-0.4,1-1v-2H1z"
	/>
<path class="st0" d="M9.3,12.7C6.4,12.7,4,10.3,4,7.3C4,4.4,6.4,2,9.3,2c2.9,0,5.3,2.4,5.3,5.3C14.7,10.3,12.3,12.7,9.3,12.7z
	 M9.3,3C6.9,3,5,4.9,5,7.3c0,2.4,1.9,4.3,4.3,4.3c2.4,0,4.3-1.9,4.3-4.3C13.7,4.9,11.7,3,9.3,3z"/>
<path class="st0" d="M22.7,12.7c-2.9,0-5.3-2.4-5.3-5.3c0-2.9,2.4-5.3,5.3-5.3C25.6,2,28,4.4,28,7.3C28,10.3,25.6,12.7,22.7,12.7z
	 M22.7,3c-2.4,0-4.3,1.9-4.3,4.3c0,2.4,1.9,4.3,4.3,4.3S27,9.7,27,7.3C27,4.9,25.1,3,22.7,3z"/>
<path class="st0" d="M9.7,23.7c-2.4,0-4.3-1.9-4.3-4.3C5.3,17,7.3,15,9.7,15c2.4,0,4.3,1.9,4.3,4.3C14,21.8,12.1,23.7,9.7,23.7z
	 M9.7,16c-1.8,0-3.3,1.5-3.3,3.3s1.5,3.3,3.3,3.3s3.3-1.5,3.3-3.3S11.5,16,9.7,16z"/>
<path class="st0" d="M22.3,23.7c-2.4,0-4.3-1.9-4.3-4.3c0-2.4,1.9-4.3,4.3-4.3s4.3,1.9,4.3,4.3C26.7,21.8,24.7,23.7,22.3,23.7z
	 M22.3,16c-1.8,0-3.3,1.5-3.3,3.3s1.5,3.3,3.3,3.3s3.3-1.5,3.3-3.3S24.2,16,22.3,16z"/>
<path class="st0" d="M11,30.7c-0.6,0-1-0.4-1-1s0.4-1,1-1s1,0.4,1,1S11.6,30.7,11,30.7z M11,29.2l0,0.5c0,0,0,0,0,0V29.2z"/>
<path class="st0" d="M14.3,30.7c-0.6,0-1-0.4-1-1s0.4-1,1-1s1,0.4,1,1S14.9,30.7,14.3,30.7z M14.3,29.2l0,0.5c0,0,0,0,0,0V29.2z"/>
<path class="st0" d="M17.7,30.7c-0.6,0-1-0.4-1-1s0.4-1,1-1s1,0.4,1,1S18.2,30.7,17.7,30.7z M17.7,29.2l0,0.5h0V29.2z"/>
<path class="st0" d="M21,30.7c-0.6,0-1-0.4-1-1s0.4-1,1-1s1,0.4,1,1S21.6,30.7,21,30.7z M21,29.2l0,0.5h0V29.2z"/>
</svg>
