<?xml version="1.0" encoding="utf-8"?>
<!-- Generator: Adobe Illustrator 21.1.0, SVG Export Plug-In . SVG Version: 6.00 Build 0)  -->
<svg version="1.1" id="Слой_1" xmlns="http://www.w3.org/2000/svg" xmlns:xlink="http://www.w3.org/1999/xlink" x="0px" y="0px"
	 viewBox="0 0 19 32" style="enable-background:new 0 0 19 32;" xml:space="preserve">
<style type="text/css">
	.st0{fill:#BCBCBC;}
</style>
<path class="st0" d="M19,19H0v-5h19V19z M1,18h17v-3H1V18z"/>
<path class="st0" d="M18,15H1V2h17V15z M2,14h15V3H2V14z"/>
<path class="st0" d="M18,3H1V0h17V3z M2,2h15V1H2V2z"/>
<path class="st0" d="M12,32H7v-6h5V32z M8,31h3v-4H8V31z"/>
<path class="st0" d="M10.9,27H8.1c-3.8,0-6.9-3.7-7.1-8.5L1,18h17l0,0.5C17.8,23.3,14.7,27,10.9,27z M2,19c0.4,4,3,7,6,7h2.8
	c3.1,0,5.7-3,6-7H2z"/>
<rect x="16" y="4" class="st0" width="2" height="1"/>
</svg>
