<svg width="17" height="10" viewBox="0 0 17 10" fill="none" xmlns="http://www.w3.org/2000/svg">
<path d="M15.9792 5.30517C15.8365 5.49691 12.4369 10 8.09494 10C3.75302 10 0.353249 5.49691 0.210724 5.30535C0.0755919 5.12345 0.0755919 4.87673 0.210724 4.69483C0.353249 4.50309 3.75302 0 8.09494 0C12.4369 0 15.8365 4.50312 15.9792 4.69468C16.1145 4.87655 16.1145 5.12345 15.9792 5.30517ZM8.09494 1.03448C4.89665 1.03448 2.1266 4.02327 1.3066 5.00035C2.12554 5.97829 4.88979 8.96552 8.09494 8.96552C11.2931 8.96552 14.0629 5.97725 14.8833 4.99965C14.0643 4.02174 11.3001 1.03448 8.09494 1.03448Z" fill="#616161"/>
<path d="M8.09472 8.10352C6.35278 8.10352 4.93555 6.71127 4.93555 5.00005C4.93555 3.28884 6.35278 1.89659 8.09472 1.89659C9.83665 1.89659 11.2539 3.28884 11.2539 5.00005C11.2539 6.71127 9.83665 8.10352 8.09472 8.10352ZM8.09472 2.9311C6.93337 2.9311 5.98863 3.85921 5.98863 5.00005C5.98863 6.1409 6.9334 7.06901 8.09472 7.06901C9.25604 7.06901 10.2008 6.1409 10.2008 5.00005C10.2008 3.85921 9.25607 2.9311 8.09472 2.9311Z" fill="#616161"/>
</svg>
