<svg width="24" height="33" viewBox="0 0 24 33" fill="none" xmlns="http://www.w3.org/2000/svg">
<path fill-rule="evenodd" clip-rule="evenodd" d="M18.2852 15.3633C18.2852 14.3008 18.0234 13.3066 17.5547 12.4297C18.7383 13.1855 19.75 14.1758 20.5352 15.334C20.9531 15.9531 21.3047 16.6191 21.582 17.3223C22.0352 18.4785 22.2852 19.7363 22.2852 21.0508C22.2852 24.5645 20.5078 27.6641 17.8008 29.5098C18.9922 28.1504 19.7148 26.3672 19.7148 24.4199C19.7148 23.3281 19.4883 22.2891 19.082 21.3477C18.8398 20.7871 18.5312 20.2598 18.168 19.7773C17.8984 19.4199 17.5977 19.0859 17.2734 18.7793C17.6016 18.2734 17.8594 17.7168 18.0352 17.123C18.0547 17.0527 18.0742 16.9824 18.0938 16.9121C18.2188 16.416 18.2852 15.8965 18.2852 15.3633ZM14.4492 9.59766C13.9531 8.97656 13.4492 8.27148 12.9766 7.49805L12.7656 7.14062C12.5156 6.70898 12.2773 6.25781 12.0547 5.78516C11.8281 6.18164 11.5938 6.56445 11.3555 6.92969C10.7109 7.93164 10.0117 8.86914 9.34766 9.68555C10.1562 9.31055 11.0508 9.10547 12 9.10547C12.8672 9.10547 13.6953 9.28125 14.4492 9.59766ZM6.44531 12.4297C5.97656 13.3047 5.71484 14.3047 5.71484 15.3633C5.71484 16.6211 6.08594 17.7988 6.72656 18.7793C5.33594 20.082 4.42969 21.8945 4.30078 23.916C4.28906 24.082 4.28516 24.25 4.28516 24.4199C4.28516 25.2363 4.41016 26.0234 4.64453 26.7617C4.96875 27.7812 5.5 28.7109 6.1875 29.5C3.48828 27.6543 1.71484 24.5586 1.71484 21.0508C1.71484 20.2051 1.81641 19.3828 2.01172 18.5977C2.09766 18.25 2.20312 17.9102 2.32422 17.5781C3.09766 15.4453 4.55859 13.6387 6.44531 12.4297ZM10.0625 21.623L9.46484 21.1699C8.88672 20.7422 8.31641 20.3516 7.86719 20.0508C7.39844 20.4961 7.00391 21.0156 6.69922 21.5898C6.25391 22.4336 6 23.3965 6 24.4199C6 27.75 8.69141 30.4395 12 30.4395C15.3086 30.4395 18 27.75 18 24.4199C18 23.2188 17.6484 22.0996 17.043 21.1582C16.7852 20.7539 16.4766 20.3848 16.1328 20.0547C15.3594 20.5938 14.1992 21.4805 13.3516 22.3438C12.793 22.9121 12.375 23.4648 12.2852 23.8984C12.1992 23.5488 11.7109 23.0215 11.0664 22.4512C10.7578 22.1797 10.4141 21.8984 10.0625 21.623ZM12.2852 0C12.2148 1.17773 11.8086 2.43945 11.2227 3.67773C9.88672 6.50781 7.60938 9.21875 6.28516 10.543C3.91406 11.8242 2.02344 13.8789 0.957031 16.3691C0.640625 17.1035 0.398438 17.875 0.238281 18.6738C0.0820312 19.4414 0 20.2363 0 21.0508C0 27.6504 5.37109 33 12 33C18.6289 33 24 27.6504 24 21.0508C24 16.5137 21.457 12.5645 17.7148 10.543C16.4531 9.49414 14.2383 6.99805 13.0625 3.76367C12.6367 2.59375 12.3477 1.32812 12.2852 0ZM8.54297 12.3867C7.84766 13.1836 7.42969 14.2246 7.42969 15.3633C7.42969 16.6328 7.94922 17.7773 8.78906 18.6035C9.53516 19.0996 10.5977 19.8496 11.5312 20.6074L11.8242 20.8496L12.1484 21.125C12.3477 20.9258 12.5508 20.7324 12.7539 20.5488C13.5898 19.7871 14.5352 19.0742 15.1992 18.6152C15.4531 18.3691 15.6758 18.0957 15.8633 17.7988C16.1367 17.3691 16.3398 16.8906 16.457 16.3789C16.5312 16.0527 16.5703 15.7129 16.5703 15.3633C16.5703 12.8496 14.5234 10.8125 12 10.8125C10.6211 10.8125 9.38281 11.4219 8.54297 12.3867Z" fill="url(#paint0_linear)"/>
<defs>
<linearGradient id="paint0_linear" x1="12" y1="9.10345" x2="12" y2="21.6207" gradientUnits="userSpaceOnUse">
<stop stop-color="#40D6A2"/>
<stop offset="1" stop-color="#28C9C8"/>
</linearGradient>
</defs>
</svg>
