<svg width="119" height="43" viewBox="0 0 119 43" fill="none" xmlns="http://www.w3.org/2000/svg">
<path d="M47.0034 11.2891L43.4734 19.7818C43.265 20.2762 43.0307 20.666 42.7702 20.9512C42.5145 21.2365 42.2446 21.4528 41.9605 21.6001C41.6764 21.7475 41.3923 21.8473 41.1082 21.8996C40.8241 21.9472 40.5258 21.9709 40.2132 21.9709C39.8865 21.9709 39.5053 21.9638 39.0697 21.9495C38.6388 21.9353 38.35 21.921 38.2032 21.9067V19.6534H38.3665C38.4092 19.6629 38.4755 19.6748 38.5654 19.6891C38.6554 19.7033 38.769 19.7176 38.9064 19.7319C39.02 19.7414 39.1431 19.7509 39.2757 19.7604C39.4083 19.7699 39.529 19.7747 39.6379 19.7747C39.9552 19.7747 40.2535 19.7366 40.5329 19.6606C40.817 19.5797 41.0064 19.4443 41.1011 19.2541L37.1875 11.2891H40.057L42.3228 16.2663L44.2405 11.2891H47.0034Z" fill="#5B5A5A"/>
<path d="M59.3769 17.9064C59.3769 19.2232 59.0218 20.2619 58.3115 21.0225C57.6012 21.7784 56.6045 22.1563 55.3213 22.1563C54.1422 22.1563 53.207 21.8331 52.5157 21.1865C51.8244 20.54 51.4266 19.6344 51.3224 18.4697H49.7598V21.9067H47.2739V13.8989H49.7598V16.6799H51.4219C51.6113 15.7244 52.0422 14.9804 52.7146 14.448C53.387 13.9156 54.2559 13.6493 55.3213 13.6493C56.6139 13.6493 57.6131 14.0296 58.3186 14.7903C59.0241 15.5509 59.3769 16.5896 59.3769 17.9064ZM56.3867 19.8531C56.5524 19.6202 56.666 19.3492 56.7276 19.0402C56.7939 18.7264 56.827 18.3533 56.827 17.9207C56.827 17.0555 56.6968 16.4256 56.4364 16.031C56.1807 15.6364 55.7971 15.4392 55.2857 15.4392C55.0679 15.4392 54.8714 15.4748 54.6962 15.5461C54.521 15.6127 54.3577 15.7434 54.2061 15.9383C54.0641 16.1237 53.9504 16.378 53.8652 16.7013C53.7847 17.0246 53.7445 17.431 53.7445 17.9207C53.7445 18.7383 53.8699 19.3516 54.1209 19.7604C54.3766 20.1645 54.772 20.3665 55.3071 20.3665C55.5154 20.3665 55.7166 20.3261 55.9108 20.2453C56.1049 20.1645 56.2635 20.0337 56.3867 19.8531Z" fill="#5B5A5A"/>
<path d="M66.6648 15.6388H64.1931V21.9067H61.7072V15.6388H59.2354V13.8989H66.6648V15.6388Z" fill="#5B5A5A"/>
<path d="M74.6488 21.9067H72.1629V18.4769H69.5917V21.9067H67.1058V13.8989H69.5917V16.6728H72.1629V13.8989H74.6488V21.9067Z" fill="#5B5A5A"/>
<path d="M83.6272 17.9064C83.6272 19.2232 83.2673 20.2619 82.5476 21.0225C81.8326 21.7784 80.8193 22.1563 79.5076 22.1563C78.2055 22.1563 77.1922 21.7784 76.4677 21.0225C75.748 20.2619 75.3881 19.2232 75.3881 17.9064C75.3881 16.5753 75.748 15.5342 76.4677 14.7831C77.1922 14.0273 78.2055 13.6493 79.5076 13.6493C80.8145 13.6493 81.8279 14.0296 82.5476 14.7903C83.2673 15.5461 83.6272 16.5848 83.6272 17.9064ZM81.0773 17.9207C81.0773 17.4453 81.0371 17.0507 80.9566 16.737C80.8808 16.4184 80.7743 16.1641 80.637 15.974C80.4902 15.7743 80.3245 15.6364 80.1398 15.5604C79.9551 15.4796 79.7444 15.4392 79.5076 15.4392C79.2851 15.4392 79.0839 15.4748 78.9039 15.5461C78.724 15.6127 78.5583 15.7434 78.4067 15.9383C78.2647 16.1237 78.151 16.378 78.0658 16.7013C77.9806 17.0246 77.938 17.431 77.938 17.9207C77.938 18.4103 77.9782 18.8072 78.0587 19.1115C78.1392 19.411 78.2434 19.6511 78.3712 19.8317C78.5038 20.0171 78.6695 20.1526 78.8684 20.2382C79.0673 20.3237 79.2875 20.3665 79.529 20.3665C79.7278 20.3665 79.9291 20.3237 80.1327 20.2382C80.341 20.1526 80.5068 20.0242 80.6299 19.8531C80.7767 19.6487 80.8879 19.4039 80.9637 19.1186C81.0395 18.8286 81.0773 18.4293 81.0773 17.9207Z" fill="#5B5A5A"/>
<path d="M88.4505 22.1207C86.9447 22.1207 85.7894 21.7594 84.9844 21.0368C84.1842 20.3142 83.784 19.285 83.784 17.9492C83.784 16.6419 84.1581 15.5984 84.9063 14.8188C85.6544 14.0392 86.7009 13.6493 88.0457 13.6493C89.2673 13.6493 90.1859 13.9797 90.8015 14.6405C91.4171 15.3013 91.7249 16.2473 91.7249 17.4786V18.377H86.2771C86.3008 18.7478 86.3789 19.0592 86.5115 19.3112C86.6441 19.5584 86.8193 19.7556 87.0371 19.903C87.2502 20.0504 87.4988 20.1573 87.7829 20.2239C88.067 20.2857 88.3771 20.3166 88.7133 20.3166C89.0022 20.3166 89.2863 20.2857 89.5656 20.2239C89.845 20.1573 90.1007 20.0718 90.3327 19.9672C90.5363 19.8769 90.7234 19.7794 90.8938 19.6748C91.069 19.5702 91.2111 19.4775 91.32 19.3967H91.5828V21.4575C91.3792 21.5383 91.1922 21.6144 91.0217 21.6857C90.856 21.7522 90.6263 21.8212 90.3327 21.8925C90.0628 21.9638 89.7835 22.0185 89.4946 22.0565C89.2105 22.0993 88.8625 22.1207 88.4505 22.1207ZM89.2744 16.8724C89.2602 16.3448 89.1371 15.9431 88.9051 15.6673C88.6778 15.3916 88.3274 15.2538 87.8539 15.2538C87.3709 15.2538 86.9921 15.3988 86.7175 15.6887C86.4476 15.9787 86.2984 16.3733 86.27 16.8724H89.2744Z" fill="#5B5A5A"/>
<path d="M45.3982 25.484H40.9235V34.0766H38.2671V23.4589H45.3982V25.484Z" fill="#5B5A5A"/>
<path d="M53.3112 34.0766H50.8252V30.6467H48.2541V34.0766H45.7681V26.0687H48.2541V28.8426H50.8252V26.0687H53.3112V34.0766Z" fill="#5B5A5A"/>
<path d="M58.7169 34.2905C57.2111 34.2905 56.0558 33.9292 55.2508 33.2066C54.4506 32.484 54.0504 31.4548 54.0504 30.119C54.0504 28.8117 54.4245 27.7682 55.1727 26.9886C55.9208 26.209 56.9673 25.8192 58.3121 25.8192C59.5337 25.8192 60.4523 26.1495 61.0679 26.8103C61.6835 27.4711 61.9913 28.4171 61.9913 29.6484V30.5468H56.5435C56.5672 30.9176 56.6453 31.229 56.7779 31.481C56.9105 31.7282 57.0857 31.9254 57.3035 32.0728C57.5166 32.2202 57.7652 32.3271 58.0493 32.3937C58.3334 32.4555 58.6435 32.4864 58.9797 32.4864C59.2686 32.4864 59.5527 32.4555 59.832 32.3937C60.1114 32.3271 60.3671 32.2416 60.5991 32.137C60.8027 32.0467 60.9898 31.9492 61.1602 31.8446C61.3354 31.74 61.4775 31.6474 61.5864 31.5665H61.8492V33.6273C61.6456 33.7081 61.4586 33.7842 61.2881 33.8555C61.1224 33.9221 60.8927 33.991 60.5991 34.0623C60.3292 34.1336 60.0499 34.1883 59.761 34.2263C59.4769 34.2691 59.1289 34.2905 58.7169 34.2905ZM59.5408 29.0422C59.5266 28.5146 59.4035 28.1129 59.1715 27.8372C58.9442 27.5614 58.5938 27.4236 58.1203 27.4236C57.6373 27.4236 57.2585 27.5686 56.9839 27.8585C56.714 28.1485 56.5648 28.5431 56.5364 29.0422H59.5408ZM60.9543 24.9278H58.9158V22.9811H60.9543V24.9278ZM57.5379 24.9278H55.4994V22.9811H57.5379V24.9278Z" fill="#5B5A5A"/>
<path d="M68.9667 31.809C68.9667 32.2701 68.8601 32.6623 68.6471 32.9856C68.4387 33.3088 68.157 33.5679 67.8018 33.7628C67.4609 33.9482 67.0655 34.0837 66.6157 34.1693C66.1706 34.2548 65.6923 34.2976 65.1809 34.2976C64.5275 34.2976 63.938 34.2358 63.4124 34.1122C62.8868 33.9886 62.3967 33.8436 61.9421 33.6772V31.7519H62.2049C62.56 31.9611 62.9531 32.1394 63.384 32.2867C63.8196 32.4341 64.2623 32.5078 64.7122 32.5078C64.8779 32.5078 65.0791 32.4959 65.3159 32.4721C65.5526 32.4484 65.7373 32.408 65.8699 32.3509C66.0735 32.2701 66.2179 32.1726 66.3032 32.0586C66.3884 31.9397 66.431 31.79 66.431 31.6093C66.431 31.4097 66.3837 31.2528 66.289 31.1387C66.1943 31.0198 66.064 30.9319 65.8983 30.8749C65.7326 30.8178 65.5408 30.7845 65.323 30.775C65.1052 30.7608 64.8684 30.7536 64.6127 30.7536H63.6823V29.1563H64.3925C64.5725 29.1563 64.7903 29.154 65.046 29.1492C65.3017 29.1397 65.5053 29.1136 65.6568 29.0708C65.851 29.0185 66.0025 28.9448 66.1114 28.8497C66.2203 28.7499 66.2748 28.593 66.2748 28.3791C66.2748 28.227 66.2274 28.1034 66.1327 28.0083C66.0427 27.9085 65.922 27.83 65.7705 27.773C65.6426 27.7254 65.4935 27.6898 65.323 27.666C65.1525 27.6422 64.9726 27.6304 64.7832 27.6304C64.4375 27.6304 64.0682 27.6874 63.6752 27.8015C63.2822 27.9156 62.9246 28.0582 62.6027 28.2293H62.3399V26.3326C62.6098 26.247 63.0265 26.1448 63.5899 26.0259C64.1582 25.9023 64.7098 25.8405 65.2449 25.8405C65.7231 25.8405 66.1635 25.8762 66.566 25.9475C66.9685 26.0188 67.3473 26.1448 67.7024 26.3254C68.0339 26.4966 68.3014 26.7248 68.505 27.01C68.7086 27.2952 68.8104 27.6446 68.8104 28.0582C68.8104 28.4813 68.6755 28.8616 68.4056 29.1991C68.1357 29.5366 67.8066 29.7648 67.4183 29.8837V29.9479C67.9107 30.0857 68.2919 30.3163 68.5618 30.6395C68.8317 30.958 68.9667 31.3479 68.9667 31.809Z" fill="#5B5A5A"/>
<path d="M77.8811 36.0589H75.6722V34.048H71.0554V36.0589H68.8465V32.2796H69.4218C69.7817 31.5285 70.0682 30.611 70.2812 29.5271C70.4991 28.4433 70.608 27.2905 70.608 26.0687H77.0927V32.2796H77.8811V36.0589ZM74.621 32.2796V27.83H72.8666C72.7861 28.719 72.6488 29.5438 72.4547 30.3044C72.2653 31.0603 72.0356 31.7187 71.7657 32.2796H74.621Z" fill="#5B5A5A"/>
<path d="M85.6663 31.3883C85.6663 31.7971 85.5858 32.175 85.4248 32.5221C85.2638 32.8643 85.0531 33.1448 84.7926 33.3635C84.4706 33.6249 84.1368 33.8103 83.7911 33.9197C83.4502 34.0243 82.9885 34.0766 82.4061 34.0766H78.5707V26.0687H81.0495V28.7713H82.4132C82.9862 28.7713 83.4478 28.8117 83.7982 28.8925C84.1534 28.9733 84.4896 29.1326 84.8068 29.3703C85.0862 29.5794 85.2993 29.8623 85.4461 30.2188C85.5929 30.5754 85.6663 30.9652 85.6663 31.3883ZM82.9317 32.0799C83.0122 31.9754 83.0667 31.8684 83.0951 31.7591C83.1235 31.645 83.1377 31.5285 83.1377 31.4097C83.1377 31.0674 83.0359 30.8131 82.8323 30.6467C82.6287 30.4803 82.3351 30.3971 81.9515 30.3971H81.0495V32.4579H81.9515C82.2072 32.4579 82.4156 32.4222 82.5766 32.3509C82.7376 32.2749 82.856 32.1845 82.9317 32.0799ZM88.9619 34.0766H86.476V26.0687H88.9619V34.0766Z" fill="#5B5A5A"/>
<path d="M101.818 34.0766H90.2907V26.0687H92.7695V32.3438H94.8151V26.0687H97.2939V32.3438H99.3395V26.0687H101.818V34.0766Z" fill="#5B5A5A"/>
<path d="M111.024 34.0766H108.162L106.272 30.9034H105.633V34.0766H103.147V26.0687H105.633V29.2847C105.983 29.2799 106.244 29.23 106.414 29.1349C106.59 29.0351 106.779 28.776 106.983 28.3577C107.049 28.2151 107.12 28.0582 107.196 27.8871C107.271 27.7159 107.34 27.5638 107.402 27.4307C107.653 26.903 107.96 26.5417 108.325 26.3468C108.694 26.1519 109.142 26.0545 109.667 26.0545C109.852 26.0545 110.027 26.0568 110.193 26.0616C110.359 26.0663 110.477 26.0687 110.548 26.0687V28.208H110.065C109.914 28.208 109.776 28.2389 109.653 28.3007C109.535 28.3577 109.431 28.4314 109.341 28.5217C109.251 28.6168 109.182 28.7119 109.135 28.8069C109.092 28.902 109.049 28.9947 109.007 29.085C108.898 29.3417 108.817 29.5248 108.765 29.6341C108.713 29.7434 108.621 29.8504 108.488 29.955L111.024 34.0766Z" fill="#5B5A5A"/>
<path d="M119.001 30.0762C119.001 31.393 118.641 32.4317 117.921 33.1923C117.206 33.9482 116.193 34.3261 114.881 34.3261C113.579 34.3261 112.566 33.9482 111.841 33.1923C111.122 32.4317 110.762 31.393 110.762 30.0762C110.762 28.7451 111.122 27.704 111.841 26.9529C112.566 26.1971 113.579 25.8192 114.881 25.8192C116.188 25.8192 117.202 26.1995 117.921 26.9601C118.641 27.7159 119.001 28.7546 119.001 30.0762ZM116.451 30.0905C116.451 29.6151 116.411 29.2205 116.33 28.9068C116.255 28.5883 116.148 28.3339 116.011 28.1438C115.864 27.9441 115.698 27.8063 115.514 27.7302C115.329 27.6494 115.118 27.609 114.881 27.609C114.659 27.609 114.458 27.6446 114.278 27.7159C114.098 27.7825 113.932 27.9132 113.78 28.1081C113.638 28.2935 113.525 28.5479 113.44 28.8711C113.354 29.1944 113.312 29.6008 113.312 30.0905C113.312 30.5801 113.352 30.9771 113.432 31.2813C113.513 31.5808 113.617 31.8209 113.745 32.0015C113.878 32.1869 114.043 32.3224 114.242 32.408C114.441 32.4935 114.661 32.5363 114.903 32.5363C115.102 32.5363 115.303 32.4935 115.506 32.408C115.715 32.3224 115.88 32.194 116.004 32.0229C116.15 31.8185 116.262 31.5737 116.337 31.2884C116.413 30.9985 116.451 30.5991 116.451 30.0905Z" fill="#5B5A5A"/>
<path fill-rule="evenodd" clip-rule="evenodd" d="M23.7988 20.0176C23.7988 18.6367 23.459 17.3398 22.8516 16.1992C26.5566 18.5762 29.0039 22.7207 29.0039 27.4316C29.0039 29.0664 28.709 30.6328 28.168 32.0801C27.1992 34.6797 25.4414 36.8945 23.1855 38.4395C24.7285 36.668 25.6582 34.3516 25.6582 31.8184C25.6582 28.918 24.4336 26.3008 22.4766 24.4648C22.8184 23.9434 23.0996 23.3809 23.3164 22.7852C23.6289 21.9199 23.7988 20.9883 23.7988 20.0176ZM17.375 29.1133C16.6504 29.8516 16.1035 30.5742 15.9902 31.1387C15.875 30.6836 15.2441 29.9961 14.4023 29.252C13.9414 28.8457 13.4199 28.4238 12.8867 28.0137C11.9531 27.2949 10.9844 26.6133 10.25 26.123C9.51562 26.8223 8.91602 27.6602 8.49609 28.5977C8.24609 29.1523 8.05859 29.7422 7.94336 30.3574C7.85547 30.8301 7.80859 31.3184 7.80859 31.8184C7.80859 36.1602 11.3125 39.6641 15.6172 39.6641C19.9238 39.6641 23.4258 36.1602 23.4258 31.8184C23.4258 29.5762 22.4902 27.5547 20.9902 26.125C19.9824 26.8281 18.4746 27.9902 17.375 29.1133ZM8.75977 24.4648C7.92383 23.1855 7.4375 21.6582 7.4375 20.0176C7.4375 18.6367 7.78125 17.3359 8.38867 16.1953C6.45898 17.4336 4.86914 19.1523 3.78906 21.1777C2.79492 23.043 2.23047 25.1719 2.23047 27.4316C2.23047 32.0078 4.54297 36.0469 8.06641 38.4512C7.16211 37.416 6.46484 36.1934 6.04102 34.8477C5.90039 34.3984 5.78906 33.9375 5.71094 33.4648C5.62305 32.9297 5.57812 32.3789 5.57812 31.8184C5.57812 28.918 6.80273 26.3008 8.75977 24.4648ZM18.8066 12.5059L18.5957 12.2402C18.1641 11.6875 17.7324 11.0859 17.3125 10.4453C17.1699 10.2246 17.0273 10 16.8887 9.76953C16.4668 9.07617 16.0605 8.33008 15.6855 7.53906C15.3926 8.05469 15.0879 8.55273 14.7812 9.03125C13.9375 10.3398 13.0273 11.5645 12.1602 12.6289C13.1816 12.1543 14.3184 11.8789 15.5156 11.8633C15.5488 11.8633 15.584 11.8633 15.6172 11.8633C16.7461 11.8633 17.8281 12.0938 18.8066 12.5059ZM15.9883 0C15.9434 0.783203 15.7832 1.59375 15.5352 2.41602C15.2988 3.20508 14.9805 4.00195 14.6074 4.79102C12.8652 8.48047 9.9043 12.0137 8.17969 13.7363C3.30859 16.373 0 21.5156 0 27.4316C0 36.0293 6.99219 43 15.6172 43C24.2422 43 31.2344 36.0293 31.2344 27.4316C31.2344 21.5156 27.9258 16.373 23.0547 13.7363C21.416 12.3711 18.5332 9.11914 17 4.9043C16.4453 3.38086 16.0684 1.73242 15.9883 0ZM15.6172 14.0879C12.332 14.0879 9.66797 16.7422 9.66797 20.0176C9.66797 21.0918 9.95312 22.0977 10.4551 22.9668C10.4883 23.0254 10.5234 23.084 10.5586 23.1406C10.8086 23.541 11.1055 23.9102 11.4395 24.2402C12.4082 24.8848 13.791 25.8633 15.0078 26.8496C15.2793 27.0703 15.5508 27.2969 15.8125 27.5254C16.0684 27.2676 16.332 27.0156 16.5977 26.7754C17.6895 25.7832 18.918 24.8535 19.7832 24.2539C20.4199 23.6328 20.916 22.8711 21.2207 22.0195C21.4453 21.3945 21.5664 20.7207 21.5664 20.0176C21.5664 16.7422 18.9043 14.0879 15.6172 14.0879Z" fill="url(#paint0_linear)"/>
<defs>
<linearGradient id="paint0_linear" x1="15.6172" y1="11.8621" x2="15.6172" y2="28.1724" gradientUnits="userSpaceOnUse">
<stop stop-color="#40D6A2"/>
<stop offset="1" stop-color="#28C9C8"/>
</linearGradient>
</defs>
</svg>
