<svg width="26" height="26" viewBox="0 0 26 26" fill="none" xmlns="http://www.w3.org/2000/svg">
<path d="M13 26C20.1797 26 26 20.1797 26 13C26 5.8203 20.1797 0 13 0C5.8203 0 0 5.8203 0 13C0 20.1797 5.8203 26 13 26Z" fill="#4D76A1"/>
<path fill-rule="evenodd" clip-rule="evenodd" d="M12.4878 18.7013H13.5063C13.5063 18.7013 13.814 18.6675 13.9711 18.4978C14.1157 18.3421 14.1111 18.0497 14.1111 18.0497C14.1111 18.0497 14.0912 16.6806 14.7255 16.479C15.3508 16.2804 16.1538 17.8022 17.0049 18.3873C17.6485 18.8302 18.1375 18.7331 18.1375 18.7331L20.4132 18.7013C20.4132 18.7013 21.6037 18.6279 21.0392 17.6902C20.993 17.6135 20.7105 16.9967 19.3472 15.7291C17.9203 14.4024 18.1114 14.6169 19.8303 12.322C20.8771 10.9244 21.2956 10.0712 21.1649 9.70573C21.0402 9.35766 20.2703 9.44966 20.2703 9.44966L17.7079 9.46565C17.7079 9.46565 17.518 9.4397 17.3771 9.52405C17.2395 9.60678 17.1509 9.79959 17.1509 9.79959C17.1509 9.79959 16.7453 10.8811 16.2045 11.8009C15.0635 13.7417 14.6073 13.8441 14.4208 13.7236C13.9871 13.4427 14.0953 12.5953 14.0953 11.9932C14.0953 10.1124 14.3801 9.32823 13.5408 9.12523C13.2623 9.0578 13.0573 9.0133 12.345 9.00612C11.4308 8.99662 10.6569 9.0089 10.2188 9.22395C9.92729 9.36693 9.70243 9.68557 9.83938 9.70388C10.0087 9.72659 10.3923 9.80747 10.5956 10.0849C10.8582 10.4427 10.8489 11.2463 10.8489 11.2463C10.8489 11.2463 10.9998 13.4603 10.4966 13.7354C10.1512 13.924 9.67744 13.5389 8.66024 11.7782C8.13903 10.8762 7.74552 9.87931 7.74552 9.87931C7.74552 9.87931 7.66964 9.69299 7.53431 9.59334C7.37006 9.47261 7.14057 9.43414 7.14057 9.43414L4.70571 9.45013C4.70571 9.45013 4.3402 9.46032 4.20602 9.61953C4.08665 9.76112 4.19654 10.054 4.19654 10.054C4.19654 10.054 6.10278 14.5215 8.26118 16.7728C10.2403 18.8369 12.4878 18.7013 12.4878 18.7013Z" fill="white"/>
</svg>
