<svg width="26" height="26" viewBox="0 0 26 26" fill="none" xmlns="http://www.w3.org/2000/svg">
<path d="M13 26C20.1797 26 26 20.1797 26 13C26 5.8203 20.1797 0 13 0C5.8203 0 0 5.8203 0 13C0 20.1797 5.8203 26 13 26Z" fill="#D42428"/>
<path d="M22.1552 3.80469C27.2233 8.88194 27.2238 17.1134 22.1552 22.1906C17.0871 27.2675 8.86933 27.2677 3.80078 22.1906L22.1552 3.80469Z" fill="#CC202D"/>
<path d="M25.6979 15.6038L19.2748 9.16992L11.6994 10.0339L7.11719 17.1401L15.6794 25.7168C20.7135 24.65 24.6712 20.6612 25.6979 15.6038Z" fill="#BA202E"/>
<path d="M19.7671 10.4926C19.7671 9.40284 18.8858 8.51953 17.7985 8.51953H8.56204C7.47494 8.51953 6.59375 9.40305 6.59375 10.4926V15.7836C6.59375 16.8734 7.4751 17.7567 8.56204 17.7567H17.7983C18.8858 17.7567 19.767 16.8731 19.767 15.7836V10.4926H19.7671ZM11.8627 15.3701V10.4007L15.6248 12.8855L11.8627 15.3701Z" fill="white"/>
</svg>
