<svg width="119" height="43" viewBox="0 0 119 43" fill="none" xmlns="http://www.w3.org/2000/svg">
    <path d="M47.003 11.29l-3.53 8.492c-.208.494-.442.884-.703 1.17a2.878 2.878 0 0 1-1.662.948 5.412 5.412 0 0 1-.895.07 35.385 35.385 0 0 1-2.01-.063v-2.254h.163c.043.01.11.022.2.036a6.713 6.713 0 0 0 .71.071c.132.01.253.015.362.015.317 0 .616-.038.895-.114.284-.081.473-.217.568-.407l-3.913-7.965h2.869l2.266 4.977 1.917-4.977h2.763z" fill="#5B5A5A"/>
    <path d="M59.377 17.906c0 1.317-.355 2.356-1.066 3.117-.71.755-1.706 1.133-2.99 1.133-1.179 0-2.114-.323-2.805-.97-.692-.646-1.09-1.552-1.194-2.716H49.76v3.437h-2.486v-8.008h2.486v2.78h1.662c.19-.955.62-1.699 1.293-2.231.672-.532 1.54-.799 2.606-.799 1.293 0 2.292.38 2.998 1.141.705.76 1.058 1.8 1.058 3.116zm-2.99 1.947c.165-.233.279-.504.34-.813.067-.314.1-.687.1-1.12 0-.865-.13-1.494-.39-1.889-.256-.395-.64-.592-1.151-.592-.218 0-.415.036-.59.107-.175.067-.338.197-.49.392-.142.186-.256.44-.34.763-.081.324-.121.73-.121 1.22 0 .817.125 1.43.376 1.84.256.404.651.605 1.186.605.208 0 .41-.04.604-.12a1.06 1.06 0 0 0 .476-.393z" fill="#5B5A5A"/>
    <path d="M66.665 15.639h-2.472v6.268h-2.486v-6.268h-2.472v-1.74h7.43v1.74z" fill="#5B5A5A"/>
    <path d="M74.649 21.907h-2.486v-3.43h-2.571v3.43h-2.486v-8.008h2.486v2.774h2.57v-2.774h2.487v8.008z" fill="#5B5A5A"/>
    <path d="M83.627 17.906c0 1.317-.36 2.356-1.08 3.117-.714.755-1.728 1.133-3.04 1.133-1.302 0-2.315-.378-3.04-1.133-.719-.761-1.079-1.8-1.079-3.117 0-1.33.36-2.372 1.08-3.123.724-.756 1.737-1.134 3.04-1.134 1.306 0 2.32.38 3.04 1.141.72.756 1.08 1.795 1.08 3.116zm-2.55.015c0-.476-.04-.87-.12-1.184-.076-.319-.183-.573-.32-.763a1.187 1.187 0 0 0-.497-.414 1.563 1.563 0 0 0-.632-.12c-.223 0-.424.035-.604.106-.18.067-.346.197-.497.392-.142.186-.256.44-.341.763-.085.324-.128.73-.128 1.22s.04.886.12 1.19c.081.3.185.54.313.72.133.186.299.322.497.407.2.086.42.128.661.128.199 0 .4-.042.604-.128.208-.085.374-.214.497-.385.147-.204.258-.45.334-.734.076-.29.113-.69.113-1.198z" fill="#5B5A5A"/>
    <path d="M88.45 22.12c-1.505 0-2.66-.36-3.466-1.083-.8-.723-1.2-1.752-1.2-3.088 0-1.307.374-2.35 1.122-3.13.748-.78 1.795-1.17 3.14-1.17 1.221 0 2.14.33 2.755.992.616.66.924 1.606.924 2.838v.898h-5.448c.024.37.102.682.234.934.133.247.308.445.526.592.213.147.462.254.746.32a4.378 4.378 0 0 0 1.783 0c.279-.066.535-.151.767-.256.203-.09.39-.188.56-.292.176-.105.318-.198.427-.278h.263v2.06c-.204.081-.39.157-.561.229a5.279 5.279 0 0 1-.69.206 7.165 7.165 0 0 1-1.882.228zm.824-5.248c-.014-.527-.137-.929-.369-1.205-.227-.275-.578-.413-1.051-.413-.483 0-.862.145-1.136.435-.27.29-.42.684-.448 1.183h3.004z" fill="#5B5A5A"/>
    <path d="M45.398 25.484h-4.475v8.593h-2.656V23.459h7.131v2.025z" fill="#5B5A5A"/>
    <path d="M53.311 34.077h-2.486v-3.43h-2.57v3.43h-2.487v-8.008h2.486v2.774h2.571v-2.774h2.486v8.008z" fill="#5B5A5A"/>
    <path d="M58.717 34.29c-1.506 0-2.661-.36-3.466-1.083-.8-.723-1.2-1.752-1.2-3.088 0-1.307.373-2.35 1.122-3.13.748-.78 1.794-1.17 3.14-1.17 1.22 0 2.14.33 2.755.991.616.661.923 1.607.923 2.838v.899h-5.447c.023.37.101.682.234.934.133.247.308.444.526.592.213.147.461.254.745.32a4.378 4.378 0 0 0 1.783 0c.28-.066.535-.151.767-.256.204-.09.39-.188.561-.292a5.22 5.22 0 0 0 .426-.278h.263v2.06c-.203.081-.39.157-.56.228a5.263 5.263 0 0 1-.69.207 7.165 7.165 0 0 1-1.882.228zm.824-5.248c-.014-.527-.137-.93-.37-1.205-.227-.276-.577-.413-1.05-.413-.484 0-.863.145-1.137.434-.27.29-.42.685-.448 1.184h3.005zm1.413-4.114h-2.038V22.98h2.038v1.947zm-3.416 0h-2.039V22.98h2.039v1.947z" fill="#5B5A5A"/>
    <path d="M68.967 31.809c0 .461-.107.853-.32 1.177-.208.323-.49.582-.845.777-.341.185-.737.32-1.186.406a7.606 7.606 0 0 1-1.435.129 7.743 7.743 0 0 1-1.769-.186 12.81 12.81 0 0 1-1.47-.435v-1.925h.263c.355.21.748.387 1.179.535.436.147.878.22 1.328.22.166 0 .367-.011.604-.035.237-.024.421-.064.554-.121.203-.08.348-.178.433-.292a.752.752 0 0 0 .128-.45c0-.2-.047-.356-.142-.47a.83.83 0 0 0-.39-.264 2.04 2.04 0 0 0-.576-.1 10.963 10.963 0 0 0-.71-.021h-.93v-1.598h.71c.18 0 .397-.002.653-.007a2.7 2.7 0 0 0 .61-.078 1.13 1.13 0 0 0 .455-.221c.11-.1.164-.257.164-.47a.503.503 0 0 0-.142-.372.907.907 0 0 0-.362-.235 2.134 2.134 0 0 0-.448-.107 3.906 3.906 0 0 0-.54-.036c-.346 0-.715.057-1.108.172-.393.114-.75.256-1.072.427h-.263v-1.896c.27-.086.686-.188 1.25-.307a7.779 7.779 0 0 1 2.976-.078 4.05 4.05 0 0 1 1.136.377c.332.172.6.4.803.685.204.285.305.635.305 1.048 0 .423-.135.804-.404 1.141-.27.338-.6.566-.988.685v.064c.493.138.874.368 1.144.692.27.318.405.708.405 1.169z" fill="#5B5A5A"/>
    <path d="M77.881 36.059h-2.209v-2.011h-4.617v2.01h-2.209V32.28h.576c.36-.752.646-1.669.86-2.753.217-1.084.326-2.236.326-3.458h6.485v6.21h.788v3.78zm-3.26-3.78V27.83h-1.754c-.08.889-.218 1.714-.412 2.474-.19.756-.42 1.415-.69 1.976h2.856z" fill="#5B5A5A"/>
    <path d="M85.666 31.388c0 .41-.08.787-.241 1.134a2.429 2.429 0 0 1-.632.842 3.053 3.053 0 0 1-1.002.556c-.34.104-.802.157-1.385.157h-3.835v-8.008h2.478v2.702h1.364c.573 0 1.035.04 1.385.121.355.081.692.24 1.009.478.28.21.492.492.64.849.146.356.22.746.22 1.17zm-2.734.692a.897.897 0 0 0 .163-.32c.029-.115.043-.232.043-.35 0-.343-.102-.597-.306-.763-.203-.167-.497-.25-.88-.25h-.903v2.06h.902c.256 0 .465-.035.626-.106a.9.9 0 0 0 .355-.271zm6.03 1.997h-2.486v-8.008h2.486v8.008z" fill="#5B5A5A"/>
    <path d="M101.818 34.077H90.291v-8.008h2.478v6.275h2.046v-6.275h2.479v6.275h2.046v-6.275h2.478v8.008z" fill="#5B5A5A"/>
    <path d="M111.024 34.077h-2.862l-1.89-3.174h-.639v3.174h-2.486v-8.008h2.486v3.216c.35-.005.611-.055.781-.15.176-.1.365-.359.569-.777.066-.143.137-.3.213-.47.075-.172.144-.324.206-.457.251-.528.558-.89.923-1.084.369-.195.817-.293 1.342-.293.185 0 .36.003.526.008.166.004.284.007.355.007v2.139h-.483a.907.907 0 0 0-.412.093 1.132 1.132 0 0 0-.518.506l-.128.278c-.109.257-.19.44-.242.55a.935.935 0 0 1-.277.32l2.536 4.122z" fill="#5B5A5A"/>
    <path d="M119.001 30.076c0 1.317-.36 2.356-1.08 3.116-.715.756-1.728 1.134-3.04 1.134-1.302 0-2.315-.378-3.04-1.134-.719-.76-1.079-1.799-1.079-3.116 0-1.33.36-2.372 1.079-3.123.725-.756 1.738-1.134 3.04-1.134 1.307 0 2.321.38 3.04 1.141.72.756 1.08 1.795 1.08 3.116zm-2.55.014c0-.475-.04-.87-.121-1.183-.075-.319-.182-.573-.319-.763a1.193 1.193 0 0 0-.497-.414 1.567 1.567 0 0 0-.633-.121c-.222 0-.423.036-.603.107-.18.066-.346.197-.498.392-.142.186-.255.44-.34.763-.086.323-.128.73-.128 1.22s.04.886.12 1.19c.081.3.185.54.313.72.133.186.298.321.497.407.199.085.419.128.661.128.199 0 .4-.043.603-.128.209-.086.374-.214.498-.385.146-.205.258-.45.333-.735.076-.29.114-.689.114-1.198z" fill="#5B5A5A"/>
    <path fill-rule="evenodd" clip-rule="evenodd" d="M23.799 20.018c0-1.381-.34-2.678-.947-3.819 3.705 2.377 6.152 6.522 6.152 11.233a13.25 13.25 0 0 1-.836 4.648 13.39 13.39 0 0 1-4.982 6.36 10.044 10.044 0 0 0 2.472-6.622c0-2.9-1.224-5.517-3.181-7.353a8.132 8.132 0 0 0 .84-1.68 8.13 8.13 0 0 0 .482-2.767zm-6.424 9.095c-.725.739-1.271 1.461-1.385 2.026-.115-.455-.746-1.143-1.588-1.887-.46-.406-.982-.828-1.515-1.238a50.186 50.186 0 0 0-2.637-1.891 7.852 7.852 0 0 0-2.441 5.695c0 4.342 3.503 7.846 7.808 7.846 4.307 0 7.809-3.504 7.809-7.846a7.84 7.84 0 0 0-2.436-5.693c-1.008.703-2.515 1.865-3.615 2.988zM8.76 24.465a8.102 8.102 0 0 1-1.322-4.447c0-1.381.343-2.682.95-3.823a13.45 13.45 0 0 0-4.599 4.983 13.258 13.258 0 0 0-1.559 6.254c0 4.576 2.313 8.615 5.836 11.02a10.082 10.082 0 0 1-2.355-4.987 10.16 10.16 0 0 1-.133-1.647c0-2.9 1.225-5.517 3.182-7.353zm10.047-11.96l-.211-.265a24.721 24.721 0 0 1-1.707-2.47 24.435 24.435 0 0 1-1.204-2.23 32.7 32.7 0 0 1-.904 1.491 40.589 40.589 0 0 1-2.62 3.598 8.203 8.203 0 0 1 3.355-.766h.101c1.13 0 2.211.23 3.19.643zM15.988 0a10.498 10.498 0 0 1-.453 2.416 17.04 17.04 0 0 1-.928 2.375c-1.742 3.69-4.703 7.223-6.427 8.945C3.309 16.373 0 21.516 0 27.432 0 36.029 6.992 43 15.617 43s15.617-6.97 15.617-15.568c0-5.916-3.308-11.059-8.18-13.696-1.638-1.365-4.52-4.617-6.054-8.832-.555-1.523-.932-3.172-1.012-4.904zm-.37 14.088c-3.286 0-5.95 2.654-5.95 5.93a5.873 5.873 0 0 0 .89 3.123c.25.4.547.77.882 1.1a50.141 50.141 0 0 1 3.568 2.609c.271.22.543.447.805.675.255-.257.519-.51.785-.75a32.74 32.74 0 0 1 3.185-2.521 5.901 5.901 0 0 0 1.783-4.236c0-3.276-2.662-5.93-5.949-5.93z" fill="url(#a)"/>
    <defs>
        <linearGradient id="a" x1="15.617" y1="11.862" x2="15.617" y2="28.172" gradientUnits="userSpaceOnUse">
            <stop stop-color="#40D6A2"/>
            <stop offset="1" stop-color="#28C9C8"/>
        </linearGradient>
    </defs>
</svg>
