<svg width="24" height="33" viewBox="0 0 24 33" fill="none" xmlns="http://www.w3.org/2000/svg">
    <path fill-rule="evenodd" clip-rule="evenodd" d="M18.285 15.363a6.19 6.19 0 0 0-.73-2.933 10.301 10.301 0 0 1 4.027 4.892c.453 1.157.703 2.414.703 3.729 0 3.514-1.777 6.613-4.484 8.459a7.701 7.701 0 0 0 1.914-5.09 7.677 7.677 0 0 0-1.547-4.643 8.036 8.036 0 0 0-.895-.998 6.357 6.357 0 0 0 .762-1.656l.059-.21a6.336 6.336 0 0 0 .191-1.55zM14.45 9.598c-.496-.621-1-1.327-1.472-2.1l-.211-.357c-.25-.432-.489-.883-.711-1.356-.227.397-.461.78-.7 1.145a31.006 31.006 0 0 1-2.007 2.756A6.272 6.272 0 0 1 12 9.106c.867 0 1.695.175 2.45.492zM6.445 12.43a6.195 6.195 0 0 0-.73 2.933c0 1.258.37 2.436 1.012 3.416a7.7 7.7 0 0 0-2.442 5.64c0 .817.125 1.604.36 2.343A7.746 7.746 0 0 0 6.188 29.5c-2.7-1.846-4.473-4.941-4.473-8.45 0-.845.101-1.667.297-2.452a10.293 10.293 0 0 1 4.434-6.168zm3.617 9.193l-.597-.453a42.104 42.104 0 0 0-1.598-1.12A6.003 6.003 0 0 0 6 24.42c0 3.33 2.691 6.02 6 6.02s6-2.69 6-6.02a6.01 6.01 0 0 0-1.867-4.365c-.774.539-1.934 1.425-2.781 2.289-.559.568-.977 1.12-1.067 1.554-.086-.35-.574-.877-1.219-1.447a23.175 23.175 0 0 0-1.004-.828zM12.285 0c-.07 1.178-.476 2.44-1.062 3.678-1.336 2.83-3.614 5.54-4.938 6.865a12.015 12.015 0 0 0-5.328 5.826A11.907 11.907 0 0 0 0 21.051C0 27.65 5.371 33 12 33s12-5.35 12-11.95c0-4.536-2.543-8.486-6.285-10.507-1.262-1.049-3.477-3.545-4.652-6.78A12.765 12.765 0 0 1 12.284 0zM8.543 12.387a4.51 4.51 0 0 0-1.113 2.976c0 1.27.52 2.414 1.36 3.24a38.019 38.019 0 0 1 2.741 2.004l.293.243.324.275c.2-.2.403-.393.606-.576a24.64 24.64 0 0 1 2.445-1.934 4.525 4.525 0 0 0 1.371-3.252c0-2.513-2.047-4.55-4.57-4.55-1.379 0-2.617.609-3.457 1.574z" fill="url(#a)"/>
    <defs>
        <linearGradient id="a" x1="12" y1="9.103" x2="12" y2="21.621" gradientUnits="userSpaceOnUse">
            <stop stop-color="#40D6A2"/>
            <stop offset="1" stop-color="#28C9C8"/>
        </linearGradient>
    </defs>
</svg>
