<?xml version="1.0" encoding="UTF-8"?><!DOCTYPE svg PUBLIC "-//W3C//DTD SVG 1.1//EN" "http://www.w3.org/Graphics/SVG/1.1/DTD/svg11.dtd"><svg xmlns="http://www.w3.org/2000/svg"><defs>
        <filter id="Adobe_OpacityMaskFilter" filterUnits="userSpaceOnUse" x="-1" y="10" width="7" height="15">
            <feColorMatrix values="1 0 0 0 0 0 1 0 0 0 0 0 1 0 0 0 0 0 1 0"/>
        </filter>
    
        <filter id="Adobe_OpacityMaskFilter_1_" filterUnits="userSpaceOnUse" x="25" y="10" width="7" height="15">
            <feColorMatrix values="1 0 0 0 0 0 1 0 0 0 0 0 1 0 0 0 0 0 1 0"/>
        </filter>
    
        <filter id="Adobe_OpacityMaskFilter" filterUnits="userSpaceOnUse" x="-1" y="3.7" width="6" height="12">
            <feColorMatrix values="1 0 0 0 0 0 1 0 0 0 0 0 1 0 0 0 0 0 1 0"/>
        </filter>
    
        <filter id="Adobe_OpacityMaskFilter_1_" filterUnits="userSpaceOnUse" x="27" y="3.7" width="6" height="12">
            <feColorMatrix values="1 0 0 0 0 0 1 0 0 0 0 0 1 0 0 0 0 0 1 0"/>
        </filter>
    
        <filter id="Adobe_OpacityMaskFilter" filterUnits="userSpaceOnUse" x="8" y="12" width="3" height="6">
            <feColorMatrix values="1 0 0 0 0 0 1 0 0 0 0 0 1 0 0 0 0 0 1 0"/>
        </filter>
    
        <filter id="Adobe_OpacityMaskFilter_1_" filterUnits="userSpaceOnUse" x="12" y="12" width="3" height="6">
            <feColorMatrix values="1 0 0 0 0 0 1 0 0 0 0 0 1 0 0 0 0 0 1 0"/>
        </filter>
    
        <filter id="Adobe_OpacityMaskFilter" filterUnits="userSpaceOnUse" x="13" y="13" width="3" height="5">
            <feColorMatrix values="1 0 0 0 0 0 1 0 0 0 0 0 1 0 0 0 0 0 1 0"/>
        </filter>
    
        <filter id="Adobe_OpacityMaskFilter_1_" filterUnits="userSpaceOnUse" x="9" y="13" width="3" height="5">
            <feColorMatrix values="1 0 0 0 0 0 1 0 0 0 0 0 1 0 0 0 0 0 1 0"/>
        </filter>
    
        <filter id="Adobe_OpacityMaskFilter_2_" filterUnits="userSpaceOnUse" x="6" y="7" width="5" height="3">
            <feColorMatrix values="1 0 0 0 0 0 1 0 0 0 0 0 1 0 0 0 0 0 1 0"/>
        </filter>
    
        <filter id="Adobe_OpacityMaskFilter" filterUnits="userSpaceOnUse" x="-1" y="-1" width="26" height="29">
            <feColorMatrix values="1 0 0 0 0 0 1 0 0 0 0 0 1 0 0 0 0 0 1 0"/>
        </filter>
    
        <filter id="Adobe_OpacityMaskFilter" filterUnits="userSpaceOnUse" x="-.2" y="-.6" width="32.2" height="14.6">
            <feColorMatrix values="1 0 0 0 0 0 1 0 0 0 0 0 1 0 0 0 0 0 1 0"/>
        </filter>
    
        <filter id="Adobe_OpacityMaskFilter" filterUnits="userSpaceOnUse" x="-1.9" y="-1" width="24.9" height="31">
            <feColorMatrix values="1 0 0 0 0 0 1 0 0 0 0 0 1 0 0 0 0 0 1 0"/>
        </filter>
    
        <filter id="Adobe_OpacityMaskFilter" filterUnits="userSpaceOnUse" x="25" y="12" width="6" height="3">
            <feColorMatrix values="1 0 0 0 0 0 1 0 0 0 0 0 1 0 0 0 0 0 1 0"/>
        </filter>
    
        <filter id="Adobe_OpacityMaskFilter_1_" filterUnits="userSpaceOnUse" x="25" y="10" width="6" height="3">
            <feColorMatrix values="1 0 0 0 0 0 1 0 0 0 0 0 1 0 0 0 0 0 1 0"/>
        </filter>
    
        <filter id="Adobe_OpacityMaskFilter_2_" filterUnits="userSpaceOnUse" x="25" y="8" width="6" height="3">
            <feColorMatrix values="1 0 0 0 0 0 1 0 0 0 0 0 1 0 0 0 0 0 1 0"/>
        </filter>
    </defs><symbol id="icon-all" viewBox="0 0 18 4">
    <path fill-rule="evenodd" clip-rule="evenodd" d="M2 4a1.999 1.999 0 1 0 0-4A1.999 1.999 0 0 0 .793 3.596C1.129 3.85 1.547 4 2 4zm8.133-.408A1.992 1.992 0 0 1 8.922 4c-.51 0-.975-.19-1.328-.504A1.999 1.999 0 0 1 8.922 0a1.999 1.999 0 0 1 1.21 3.592zM17.848 2a1.999 1.999 0 1 1-4 0 1.999 1.999 0 1 1 4 0z"/>
</symbol><symbol id="icon-armchair" viewBox="0 0 31 26">
    <style>
        .st0{fill:#bcbcbc}.st1{fill:#fff;filter:url(#Adobe_OpacityMaskFilter)}.st2{mask:url(#path-4-inside-1);fill:#bcbcbc}.st3{fill:#fff;filter:url(#Adobe_OpacityMaskFilter_1_)}.st4{mask:url(#path-6-inside-2);fill:#bcbcbc}
    </style>
    <path class="st0" d="M27 16H4V3c0-1.7 1.3-3 3-3h17c1.7 0 3 1.3 3 3v13zM5 15h21V3c0-1.1-.9-2-2-2H7c-1.1 0-2 .9-2 2v12z"/>
    <path class="st0" d="M5.3 26H4v-3h2z"/>
    <path class="st0" d="M27 26h-1.3l-.7-3h2z"/>
    
    <mask maskUnits="userSpaceOnUse" x="-1" y="10" width="7" height="15" id="path-4-inside-1">
        <path class="st1" d="M5 13.7v-.1C5 12.2 3.9 11 2.5 11S0 12.2 0 13.6c0 .8.3 1.4.8 1.9.1.1.3.2.4.3V21c0 1.7 1.3 3 3 3H5V13.7z"/>
    </mask>
    <path class="st2" d="M.8 15.5l-.7.7.7-.7zm.4.4h1v-.6l-.4-.3-.6.9zM5 24v1h1v-1H5zM4 13.6v.1h2v-.1H4zM2.5 12c.8 0 1.5.7 1.5 1.6h2c0-2-1.5-3.6-3.5-3.6v2zM1 13.6c0-.9.7-1.6 1.5-1.6v-2C.5 10-1 11.6-1 13.6h2zm.5 1.2c-.3-.3-.5-.7-.5-1.2h-2c0 1 .4 2 1.1 2.6l1.4-1.4zm.3.2c-.1-.1-.2-.1-.3-.2L.1 16.2c.2.2.4.3.6.5L1.8 15zm.4 6v-5.1h-2V21h2zm2 2c-1.1 0-2-.9-2-2h-2c0 2.2 1.8 4 4 4v-2zm.8 0h-.8v2H5v-2zm-1-9.3V24h2V13.7H4z"/>
    
    <mask maskUnits="userSpaceOnUse" x="25" y="10" width="7" height="15" id="path-6-inside-2">
        <path class="st3" d="M26 13.7v-.1c0-1.4 1.1-2.6 2.5-2.6s2.5 1.2 2.5 2.6c0 1-.5 1.8-1.2 2.3V21c0 1.7-1.3 3-3 3H26V13.7z"/>
    </mask>
    <path class="st4" d="M29.8 15.9l-.6-.9-.5.3v.6h1.1zM26 24h-1v1h1v-1zm-1-10.4s0 .1 0 0v.1h2v-.1h-2zm3.5-3.6c-2 0-3.5 1.6-3.5 3.6h2c0-.9.7-1.6 1.5-1.6v-2zm3.5 3.6c0-2-1.5-3.6-3.5-3.6v2c.8 0 1.5.7 1.5 1.6h2zm-1.7 3.1c1-.6 1.7-1.8 1.7-3.1h-2c0 .6-.3 1.1-.8 1.4l1.1 1.7zm.5 4.3v-5.1h-2V21h2zm-4 4c2.2 0 4-1.8 4-4h-2c0 1.1-.9 2-2 2v2zm-.8 0h.8v-2H26v2zm-1-11.3V24h2V13.7h-2z"/>
    <path class="st0" d="M27 24H4v-3h23v3zM5 23h21v-1H5v1z"/>
    <path class="st0" d="M27 22H4v-7h23v7zM5 21h21v-5H5v5z"/>
</symbol><symbol id="icon-arrow-down-shaded" viewBox="0 0 9 5">
    <path d="M4.5 4.5L0 0h9L4.5 4.5z"/>
</symbol><symbol id="icon-arrow-down" viewBox="0 0 10 6">
    <style>
        .st0{fill:#616161}
    </style>
    <path class="st0" d="M5 5.3L.6.9C.4.7.4.4.6.2c.2-.2.6-.2.8 0L5 3.9 8.6.2c.2-.2.6-.2.8 0 .2.2.2.5 0 .7L5 5.3z"/>
</symbol><symbol id="icon-arrow-left" viewBox="0 0 6 10">
    <style>
        .st0{fill:#616161}
    </style>
    <path class="st0" d="M5 9.5c-.1 0-.3 0-.4-.1L.3 5 4.7.7c.2-.2.5-.2.7 0 .2.2.2.5 0 .7L1.7 5l3.6 3.6c.2.2.2.5 0 .7 0 .1-.2.2-.3.2z"/>
</symbol><symbol id="icon-arrow-right" viewBox="0 0 6 10">
    <style>
        .st0{fill:#616161}
    </style>
    <path class="st0" d="M1 9.5c-.1 0-.3 0-.4-.1-.2-.2-.2-.5 0-.7L4.3 5 .6 1.3C.4 1.1.4.8.6.6c.2-.2.5-.2.7 0L5.7 5 1.4 9.3c-.1.1-.3.2-.4.2z"/>
</symbol><symbol id="icon-bath" viewBox="0 0 32 17">
    <style>
        .st0{fill:#ff8c48}
    </style>
    <path class="st0" d="M30.5 5h-29C.7 5 0 4.3 0 3.5S.7 2 1.5 2h29c.8 0 1.5.7 1.5 1.5S31.3 5 30.5 5zm-29-2c-.3 0-.5.2-.5.5s.2.5.5.5h29c.3 0 .5-.2.5-.5s-.2-.5-.5-.5h-29z"/>
    <path class="st0" d="M19 16h-6C6.6 16 1.3 11 1 4.5V4h30v.5C30.7 11 25.4 16 19 16zM2 5c.5 5.6 5.2 10 11 10h6c5.7 0 10.5-4.4 11-10H2z"/>
    <path class="st0" d="M1 1h1v2H1z"/>
    <path class="st0" d="M2 0h1v3H2z"/>
    <path class="st0" d="M2 0h3v1H2z"/>
    <path class="st0" d="M10.3 17H9v-2h2z"/>
    <path class="st0" d="M23 17h-1.3l-.7-2h2z"/>
</symbol><symbol id="icon-bed" viewBox="0 0 32 19">
    <style>
        .st0{fill:#bcbcbc}
    </style>
    <path class="st0" d="M32 17H0v-4h32v4zM1 16h30v-2H1v2z"/>
    <path class="st0" d="M3.3 19H2v-2h2z"/>
    <path class="st0" d="M30 19h-1.3l-.7-2h2z"/>
    <path class="st0" d="M32 14H0v-2c0-1.7 1.3-3 3-3h26c1.7 0 3 1.3 3 3v2zM1 13h30v-1c0-1.1-.9-2-2-2H3c-1.1 0-2 .9-2 2v1z"/>
    <path class="st0" d="M29 10H3V2c0-1.1.9-2 2-2h22c1.1 0 2 .9 2 2v8zM4 9h24V2c0-.6-.4-1-1-1H5c-.6 0-1 .4-1 1v7z"/>
    <path class="st0" d="M14 9.8H5.3V6.9c0-.6.4-1 1-1H13c.6 0 1 .4 1 1v2.9zm-7.7-1H13V6.9H6.3v1.9z"/>
    <path class="st0" d="M26.7 9.8H18V6.9c0-.6.4-1 1-1h6.7c.6 0 1 .4 1 1v2.9zm-7.7-1h6.7V6.9H19v1.9z"/>
</symbol><symbol id="icon-burger" viewBox="0 0 16 16">
    <path fill-rule="evenodd" clip-rule="evenodd" d="M0 1.973a1 1 0 0 1 1-1h14a1 1 0 0 1 1 1v.996a.998.998 0 0 1-1 1H1a1 1 0 0 1-1-1v-.996zm0 5.99a1 1 0 0 1 1-1h14a1 1 0 0 1 1 1v.996a1 1 0 0 1-1 1H1a1 1 0 0 1-1-1v-.996zm1 4.992a1 1 0 0 0-1 1v.996a1 1 0 0 0 1 1h14a.998.998 0 0 0 1-1v-.996a1 1 0 0 0-1-1H1z"/>
</symbol><symbol id="icon-chair" viewBox="0 0 19 32">
    <style>
        .st0{fill:#bcbcbc}
    </style>
    <path class="st0" d="M17 21H2c-1.1 0-2-.9-2-2s.9-2 2-2h15c1.1 0 2 .9 2 2s-.9 2-2 2zM2 18c-.6 0-1 .4-1 1s.4 1 1 1h15c.6 0 1-.4 1-1s-.4-1-1-1H2z"/>
    <path class="st0" d="M3.4 32H2V20h2.1z"/>
    <path class="st0" d="M17 32h-1.4l-.7-12H17z"/>
    <path class="st0" d="M17 18H2V4c0-2.2 1.8-4 4-4h7c2.2 0 4 1.8 4 4v14zM3 17h13V4c0-1.7-1.3-3-3-3H6C4.3 1 3 2.3 3 4v13z"/>
</symbol><symbol id="icon-clock" viewBox="0 0 16 16">
    <path d="M15.471 8c0 4.143-3.352 7.5-7.485 7.5C3.852 15.5.5 12.143.5 8S3.852.5 7.986.5C12.119.5 15.47 3.857 15.47 8z"/>
    <path d="M7.986 5v4h1.997" stroke-linecap="round"/>
    <path d="M7.486 2a.5.5 0 0 0 1 0h-1zm0-1v1h1V1h-1z"/>
    <path d="M7.486 14a.5.5 0 0 1 1 0h-1zm0 1v-1h1v1h-1z"/>
    <path d="M1.996 8.5a.5.5 0 0 0 0-1v1zm-.998 0h.998v-1H.998v1z"/>
    <path d="M13.975 8.5a.5.5 0 1 1 0-1v1zm.998 0h-.998v-1h.998v1z"/>
    <path d="M4.105 12.595a.501.501 0 0 0-.707-.707l.707.707zm-.707.708l.707-.708-.707-.707-.706.707.706.708z"/>
    <path d="M12.572 4.112a.499.499 0 1 1-.706-.707l.707.707zm.707-.707l-.707.707-.706-.707.707-.708.706.708z"/>
    <path d="M12.572 11.888a.499.499 0 1 0-.706.707l.707-.707zm.707.707l-.707-.707-.706.707.707.708.706-.708z"/>
    <path d="M4.105 3.405a.501.501 0 0 1-.707.707l.707-.707zm-.707-.708l.707.708-.707.707-.706-.707.706-.708z"/>
</symbol><symbol id="icon-close" viewBox="0 0 18 18">
    <style>
        .st0{fill:#038992}
    </style>
    <path class="st0" d="M16.6 17.4L9 9.7l-7.6 7.7-.8-.8L8.3 9 .6 1.4l.8-.8L9 8.3 16.6.6l.8.8L9.7 9l7.7 7.6z"/>
</symbol><symbol id="icon-couch" viewBox="0 0 32 17">
    <style>
        .st0{fill:#ff8c48}.st1{fill:#fff;filter:url(#Adobe_OpacityMaskFilter)}.st2{mask:url(#path-2-inside-1);fill:#ff8c48}.st3{fill:#fff;filter:url(#Adobe_OpacityMaskFilter_1_)}.st4{mask:url(#path-4-inside-2);fill:#ff8c48}
    </style>
    <path class="st0" d="M29 9H3V3c0-1.7 1.3-3 3-3h20c1.7 0 3 1.3 3 3v6zM4 8h24V3c0-1.1-.9-2-2-2H6c-1.1 0-2 .9-2 2v5z"/>
    
    <mask maskUnits="userSpaceOnUse" x="-1" y="3.7" width="6" height="12" id="path-2-inside-1">
        <path class="st1" d="M4 6.7c0-1.1-.9-2-2-2s-2 .9-2 2c0 .9.6 1.6 1.3 1.9V12c0 1.5 1.2 2.7 2.7 2.7v-8z"/>
    </mask>
    <path class="st2" d="M1.3 8.6h1v-.8l-.6-.2-.4 1zM4 14.7v1h1v-1H4zm-2-9c.6 0 1 .4 1 1h2c0-1.7-1.3-3-3-3v2zm-1 1c0-.6.4-1 1-1v-2c-1.7 0-3 1.3-3 3h2zm.7.9c-.4-.1-.7-.5-.7-.9h-2c0 1.3.8 2.4 2 2.8l.7-1.9zm.6 4.4V8.6h-2V12h2zM4 13.7c-.9 0-1.7-.7-1.7-1.7h-2c0 2 1.6 3.7 3.7 3.7v-2zm-1-7v8h2v-8H3z"/>
    
    <mask maskUnits="userSpaceOnUse" x="27" y="3.7" width="6" height="12" id="path-4-inside-2">
        <path class="st3" d="M28 6.7c0-.6.3-1.2.7-1.5.3-.3.8-.5 1.3-.5 1.1 0 2 .9 2 2 0 .9-.6 1.6-1.3 1.9V12c0 1.5-1.2 2.7-2.7 2.7v-8z"/>
    </mask>
    <path class="st4" d="M28.7 5.1l.6.8-.6-.8zm2 3.5h-1v-.8l.7-.2.3 1zM28 14.7v1h-1v-1h1zm1.4-8.8c-.3.2-.4.5-.4.8h-2c0-.9.4-1.7 1.1-2.3l1.3 1.5zm.6-.2c-.2 0-.5.1-.6.2l-1.3-1.5c.5-.4 1.2-.7 1.9-.7v2zm1 1c0-.6-.4-1-1-1v-2c1.7 0 3 1.3 3 3h-2zm-.7.9c.4-.1.7-.5.7-.9h2c0 1.3-.8 2.4-2 2.8l-.7-1.9zm-.6 4.4V8.6h2V12h-2zM28 13.7c.9 0 1.7-.7 1.7-1.7h2c0 2-1.6 3.7-3.7 3.7v-2zm1-7v8h-2v-8h2z"/>
    <path class="st0" d="M29 17h-1l-1-2h2z"/>
    <path class="st0" d="M4 17H3v-2h2z"/>
    <path class="st0" d="M29 13H3V8h26v5zM4 12h24V9H4v3z"/>
    <path class="st0" d="M29 15H3v-3h26v3zM4 14h24v-1H4v1z"/>
</symbol><symbol id="icon-cupboard" viewBox="0 0 24 32">
    <style>
        .st0{fill:#bcbcbc}.st1{fill:#fff;filter:url(#Adobe_OpacityMaskFilter)}.st2{mask:url(#path-4-inside-1);fill:#bcbcbc}.st3{fill:#fff;filter:url(#Adobe_OpacityMaskFilter_1_)}.st4{mask:url(#path-6-inside-2);fill:#bcbcbc}
    </style>
    <path class="st0" d="M12 30H0V0h12v30zM1 29h10V1H1v28z"/>
    <path class="st0" d="M23 32H1v-3h22v3zM2 31h20v-1H2v1z"/>
    <path class="st0" d="M24 30H11V0h13v30zm-12-1h11V1H12v28z"/>
    
    <mask maskUnits="userSpaceOnUse" x="8" y="12" width="3" height="6" id="path-4-inside-1">
        <path class="st1" d="M10 13v4H9v-4h1z"/>
    </mask>
    <path class="st2" d="M10 13h1v-1h-1v1zm0 4v1h1v-1h-1zm-1 0H8v1h1v-1zm0-4v-1H8v1h1zm0 0v4h2v-4H9zm1 3H9v2h1v-2zm0 1v-4H8v4h2zm-1-3h1v-2H9v2z"/>
    
    <mask maskUnits="userSpaceOnUse" x="12" y="12" width="3" height="6" id="path-6-inside-2">
        <path class="st3" d="M14 13v4h-1v-4h1z"/>
    </mask>
    <path class="st4" d="M14 13h1v-1h-1v1zm0 4v1h1v-1h-1zm-1 0h-1v1h1v-1zm0-4v-1h-1v1h1zm0 0v4h2v-4h-2zm1 3h-1v2h1v-2zm0 1v-4h-2v4h2zm-1-3h1v-2h-1v2z"/>
</symbol><symbol id="icon-delete" viewBox="0 0 18 22">
    <style>
        .st0{fill:#bcbcbc}
    </style>
    <path class="st0" d="M15.8 22H2.2L1.1 4h15.8l-1.1 18zM3.2 21h11.6l1-16H2.2l1 16z"/>
    <path class="st0" d="M17 5H1c-.6 0-1-.4-1-1V3c0-.6.4-1 1-1h16c.6 0 1 .4 1 1v1c0 .6-.4 1-1 1zM1 3v1h16V3H1zm0-.5V3v-.5z"/>
    <path class="st0" d="M11 3H7c-.6 0-1-.4-1-1V1c0-.6.4-1 1-1h4c.6 0 1 .4 1 1v1c0 .6-.4 1-1 1zM7 1v1h4V1H7zm0-.5V1 .5z"/>
    <path class="st0" d="M5 18.5c-.3 0-.5-.2-.5-.5V7c0-.3.2-.5.5-.5s.5.2.5.5v11c0 .3-.2.5-.5.5z"/>
    <path class="st0" d="M9 18.5c-.3 0-.5-.2-.5-.5V7c0-.3.2-.5.5-.5s.5.2.5.5v11c0 .3-.2.5-.5.5z"/>
    <path class="st0" d="M13 18.5c-.3 0-.5-.2-.5-.5V7c0-.3.2-.5.5-.5s.5.2.5.5v11c0 .3-.2.5-.5.5z"/>
</symbol><symbol id="icon-development" viewBox="0 0 78 10">
    <path d="M61.443 0v1.993c.739.23 1.367.703 1.772 1.336.405.632.56 1.382.439 2.114a3.082 3.082 0 0 1-1.104 1.88 3.355 3.355 0 0 1-2.118.745 3.355 3.355 0 0 1-2.118-.745 3.082 3.082 0 0 1-1.103-1.88 2.998 2.998 0 0 1 .439-2.114 3.242 3.242 0 0 1 1.771-1.336V0c-1.29.24-2.44.93-3.225 1.935a4.882 4.882 0 0 0-1.025 3.503 4.969 4.969 0 0 0 1.708 3.251A5.429 5.429 0 0 0 60.432 10c1.314 0 2.581-.467 3.554-1.31a4.97 4.97 0 0 0 1.708-3.252 4.882 4.882 0 0 0-1.025-3.503A5.322 5.322 0 0 0 61.443 0z"/>
    <path d="M10.121 2.071V.135H0v9.663h10.121V7.865H2.123V5.933h5.975V4l-5.975.014V2.07h7.998z"/>
    <path d="M34.608 2.071V.135H24.486v9.663h10.122v-1.93l-7.998.002V5.933h5.973V4H26.61V2.071h7.998z"/>
    <path fill-rule="evenodd" clip-rule="evenodd" d="M12.919.135l3.362 2.75-1.52 1.242-2.517-2.058V.135h.675zm-.675 9.663V7.865l9.444-7.73h.675v1.932l-3.542 2.9 3.542 2.898v1.933h-.675L17.304 6.21l-4.385 3.59h-.675z"/>
    <path d="M77.95.135h-2.073v5.798L68.503.135h-.675v9.664h2.123V4.01l7.374 5.788H78V.135h-.05z"/>
    <path d="M48.397 7.868V.135h-2.124v9.663h7.423v-1.93h-5.3z"/>
    <path d="M38.853 7.868V.135H36.73v9.574h.005v.09h7.418v-1.93h-5.3z"/>
</symbol><symbol id="icon-douche" viewBox="0 0 25 33">
    <style>
        .st0{fill:#ff8c48}.st1{fill:#fff;filter:url(#Adobe_OpacityMaskFilter)}.st2{mask:url(#path-5-inside-1);fill:#ff8c48}.st3{fill:#fff;filter:url(#Adobe_OpacityMaskFilter_1_)}.st4{mask:url(#path-7-inside-2);fill:#ff8c48}.st5{fill:#fff;filter:url(#Adobe_OpacityMaskFilter_2_)}.st6{mask:url(#path-11-inside-3);fill:#ff8c48}
    </style>
    <path class="st0" d="M13 30H0V2h13v28zM1 29h11V3H1v26z"/>
    <path class="st0" d="M25 30H12V2h13v28zm-12-1h11V3H13v26z"/>
    <path class="st0" d="M25 33H0v-4h25v4zM1 32h23v-2H1v2z"/>
    <path class="st0" d="M25 3H0V0h25v3zM1 2h23V1H1v1z"/>
    
    <mask maskUnits="userSpaceOnUse" x="13" y="13" width="3" height="5" id="path-5-inside-1">
        <path class="st1" d="M15 14v3h-1v-3h1z"/>
    </mask>
    <path class="st2" d="M15 14h1v-1h-1v1zm0 3v1h1v-1h-1zm-1 0h-1v1h1v-1zm0-3v-1h-1v1h1zm0 0v3h2v-3h-2zm1 2h-1v2h1v-2zm0 1v-3h-2v3h2zm-1-2h1v-2h-1v2z"/>
    
    <mask maskUnits="userSpaceOnUse" x="9" y="13" width="3" height="5" id="path-7-inside-2">
        <path class="st3" d="M11 14v3h-1v-3h1z"/>
    </mask>
    <path class="st4" d="M11 14h1v-1h-1v1zm0 3v1h1v-1h-1zm-1 0H9v1h1v-1zm0-3v-1H9v1h1zm0 0v3h2v-3h-2zm1 2h-1v2h1v-2zm0 1v-3H9v3h2zm-1-2h1v-2h-1v2z"/>
    <path class="st0" d="M11 11H6v-1l.5-.1H11z"/>
    <path class="st0" d="M3 29.4H2V7c0-1.8 1.8-3.2 3.5-3.2S9 5.2 9 7v1.3H8V7c0-1.2-1.4-2.2-2.5-2.2S3 5.8 3 7v22.4z"/>
    
    <mask maskUnits="userSpaceOnUse" x="6" y="7" width="5" height="3" id="path-11-inside-3">
        <path class="st5" d="M8.5 8C7.7 8 7 8.4 7 9h3c0-.6-.7-1-1.5-1z"/>
    </mask>
    <path class="st6" d="M7 9H6v1h1V9zm3 0v1h1V9h-1zM8 9c0 .2-.1.2 0 .1.1 0 .3-.1.5-.1V7c-.6 0-1.2.2-1.6.5-.5.3-.9.8-.9 1.5h2zm.5 0c.2 0 .4.1.5.1.1.1 0 0 0-.1h2c0-.7-.4-1.2-.9-1.5-.4-.3-1-.5-1.6-.5v2zM10 8H7v2h3V8z"/>
</symbol><symbol id="icon-hairdryer" viewBox="0 0 33 27">
    <style>
        .st0{fill:#fff;filter:url(#Adobe_OpacityMaskFilter)}.st1{mask:url(#path-1-inside-1)}.st1,.st2{fill:#ff8c48}
    </style>
    
    <mask maskUnits="userSpaceOnUse" x="-1" y="-1" width="26" height="29" id="path-1-inside-1">
        <path class="st0" d="M24 3.2L8.7.3C8.4.2 8.2.2 8 .1h-.5C7.3 0 7.2 0 7 0h-.4c-2.1 0-4 1-5.2 2.7-.3.3-.5.6-.7 1l-.2.4C.2 4.9 0 5.8 0 6.8c0 2.4 1.2 4.4 3 5.7V12.8l-.8 11c-.1.8.2 1.6.7 2.2.3.3.7.6 1.1.8.3.1.7.2 1.2.2.7 0 1.4-.2 1.9-.6.4-.3.7-.7.9-1.1.2-.4.3-.8.3-1.3v-6c.3 0 .6-.3.6-.6 0-.4-.3-.7-.6-.7v-.6c.3 0 .6-.3.6-.6 0-.4-.3-.7-.6-.7v-1.4L24 10.3V3.2z"/>
    </mask>
    <path class="st1" d="M8.7.3l-.3 1h.2l.1-1zM24 3.2h1v-.8l-.8-.2-.2 1zM8 .1l.2-1-.2 1zm-.5 0l.2-1-.2 1zM7 0l-.2 1H7V0zm-.1 0l.2-1h-.2v1zM1.4 2.7l.8.6-.8-.6zm-.7 1l-.9-.4.9.4zm-.2.4l-.9-.4.9.4zM3 12.4l1 .1.1-.6-.5-.3-.6.8zm0 .2l-1-.1 1 .1zm0 .1l-1-.1 1 .1zm-.9 11l-1-.1 1 .1zm.8 2.2l.8-.7-.8.7zm1.1.8l.4-.9-.4.9zm3-.3l-.6-.8.6.8zm.9-1.2l-.9-.4.9.4zm.3-7.2v-1h-1v1h1zm0-1.3h-1v1h1v-1zm0-.6v-1h-1v1h1zm0-1.3h-1v1h1v-1zm0-1.4l-.2-1-.8.2v.8h1zM24 10.3l.2 1 .8-.2v-.8h-1zm-15.5-9l15.3 2.9.4-2L8.9-.7l-.4 2zm-.7-.2c.2 0 .4.1.6.2L9-.6c-.3-.1-.5-.2-.8-.2l-.4 1.9zM7.3 1l.5.1.3-2h-.4L7.3 1zm-.4 0h.4l.3-2h-.5l-.2 2zm-.1 0l.4-2h-.1l-.3 2zm-.2 0h.3v-2h-.3v2zM2.2 3.3C3.2 1.9 4.8 1 6.6 1v-2C4.1-1 1.9.2.6 2.1l1.6 1.2zm-.6.8c.1-.3.3-.6.5-.9L.6 2.1c-.3.3-.6.7-.8 1.1l1.8.9zm-.2.4l.2-.4-1.8-.8-.2.4 1.8.8zM1 6.8c0-.8.2-1.6.4-2.3l-1.8-.8c-.4.9-.6 2-.6 3h2zm2.6 4.8C2 10.5 1 8.8 1 6.8h-2c0 2.7 1.4 5.1 3.5 6.5l1.1-1.7zm.4 1.1v-.1l-2-.3v.1l2 .3zm0 .1v-.2l-2-.2v.2l2 .2zm-.9 11l.8-11-2-.2-.8 11 2 .2zm.5 1.5c-.3-.4-.5-.9-.5-1.5l-2-.1c-.1 1.1.3 2.2 1 2.9l1.5-1.3zm.8.5c-.3-.1-.5-.3-.7-.5l-1.5 1.3c.4.4.9.8 1.4 1.1l.8-1.9zm.8.2c-.3 0-.6-.1-.8-.2l-.8 1.8c.4.3 1 .4 1.6.4v-2zm1.2-.4c-.3.2-.8.4-1.2.4v2c.9 0 1.8-.3 2.5-.9l-1.3-1.5zm.6-.8c-.1.3-.3.5-.6.7l1.2 1.6c.5-.4.9-.9 1.2-1.5L7 24.8zm.2-.8c0 .3-.1.6-.2.9l1.8.9c.2-.5.4-1.1.4-1.7h-2zm0-6v6h2v-6h-2zm.6-.6c0-.2.2-.4.4-.4v2c.9 0 1.6-.7 1.6-1.6h-2zm.4.3c-.2 0-.4-.2-.4-.3h2c0-.9-.7-1.7-1.6-1.7v2zm-1-1.6v.6h2v-.6h-2zm.6-.7c0-.2.2-.4.4-.4v2c.9 0 1.6-.7 1.6-1.6h-2zm.4.4c-.2 0-.4-.2-.4-.3h2c0-.9-.7-1.7-1.6-1.7v2zm-1-2.4v1.4h2v-1.4h-2zm16.6-4.1L8 12.4l.4 2 15.8-3.1-.4-2zM23 3.2v7.1h2V3.2h-2z"/>
    <path class="st2" d="M6.6 11.6c-2.6 0-4.7-2.2-4.7-4.8S4 1.9 6.6 1.9s4.7 2.2 4.7 4.8-2.1 4.9-4.7 4.9zm0-8.7c-2.1 0-3.7 1.7-3.7 3.8s1.7 3.8 3.7 3.8 3.7-1.7 3.7-3.8-1.6-3.8-3.7-3.8z"/>
    <path class="st2" d="M30 4.6c-.6 0-1.2-.2-1.6-.5-.8-.4-1.4-.7-2.8.2-.2.1-.5.1-.7-.2-.1-.2-.1-.5.2-.7 1.8-1.1 2.9-.6 3.7-.2.7.3 1.3.6 2.3 0 .2-.1.5 0 .7.2.1.2 0 .5-.2.7-.6.4-1.2.5-1.6.5z"/>
    <path class="st2" d="M30.6 7.4c-.6 0-1.2-.2-1.6-.5-.8-.4-1.4-.7-2.8.2-.2.2-.5.1-.6-.1-.1-.2-.1-.5.2-.7 1.8-1.1 2.9-.6 3.7-.2.7.3 1.3.6 2.3 0 .2-.1.5 0 .7.2.1.2 0 .5-.2.7-.7.3-1.2.4-1.7.4z"/>
    <path class="st2" d="M30 10.1c-.6 0-1.2-.2-1.6-.5-.8-.4-1.4-.7-2.8.2-.2.1-.5.1-.7-.2-.1-.2-.1-.5.2-.7 1.8-1.1 2.9-.6 3.7-.2.7.3 1.3.6 2.3 0 .2-.1.5 0 .7.2.1.2 0 .5-.2.7-.6.4-1.2.5-1.6.5z"/>
</symbol><symbol id="icon-heart" viewBox="0 0 18 16">
    <path d="M16.974 5.175l-.747.072.003.027.004.026.74-.125zM8.956 3l-.637.396.63 1.014.64-1.008L8.956 3zm-7.93 2.174l.74.128.005-.028.002-.028-.746-.072zm.137 1.587l.727-.183-.727.183zm2.215 3.478l.487-.57-.487.57zM8.952 15l-.487.57.483.413.486-.409L8.952 15zm5.67-4.76l.482.574.005-.004-.487-.57zm2.215-3.48l-.727-.182.727.183zm.883-1.657C17.453 2.34 15.347.25 12.643.25v1.5c1.851 0 3.384 1.421 3.584 3.497l1.493-.144zM12.643.25c-1.77 0-3.4.897-4.32 2.348l1.266.804c.642-1.011 1.79-1.652 3.054-1.652V.25zm-3.05 2.354A4.947 4.947 0 0 0 5.357.25v1.5c1.231 0 2.323.617 2.962 1.646l1.274-.792zM5.357.25C2.654.25.547 2.34.28 5.102l1.493.144c.2-2.075 1.733-3.496 3.584-3.496V.25zM.287 5.047c-.034.2-.11.869.148 1.896l1.455-.365c-.202-.806-.127-1.263-.124-1.276L.288 5.047zm.148 1.896c.373 1.486 1.23 2.821 2.456 3.867l.974-1.141c-1.009-.86-1.684-1.931-1.975-3.09l-1.455.364zm2.456 3.867l5.574 4.76.974-1.14-5.574-4.76-.974 1.14zm6.543 4.764l5.67-4.76-.964-1.149-5.67 4.76.964 1.15zm5.675-4.764c1.226-1.046 2.083-2.38 2.456-3.867l-1.455-.365c-.291 1.16-.966 2.231-1.975 3.091l.974 1.141zm2.456-3.867c.258-1.028.182-1.696.148-1.894l-1.479.251c.003.016.078.472-.124 1.278l1.455.365z"/>
</symbol><symbol id="icon-iron" viewBox="0 0 31 15">
    <style>
        .st0{fill:#bcbcbc}.st1{fill:#fff;filter:url(#Adobe_OpacityMaskFilter)}.st2{mask:url(#path-2-inside-1);fill:#bcbcbc}
    </style>
    <path class="st0" d="M30 15H1c-.6 0-1-.4-1-1v-1c0-.6.4-1 1-1h29c.6 0 1 .4 1 1v1c0 .6-.4 1-1 1zM1 13v1h29v-1H1zm0-.5v.5-.5z"/>
    
    <mask maskUnits="userSpaceOnUse" x="-.2" y="-.6" width="32.2" height="14.6" id="path-2-inside-1">
        <path class="st1" d="M19.6 1l6-.5c2-.2 3.8.8 4.7 2.4.4.7.7 1.6.7 2.5V13H1.6c-.7 0-1.1-.8-.7-1.3 2.1-3 4.9-5.5 8-7.4v-.6c.1-.4.4-.7.7-.7.3 0 .6.2.7.6 2.9-1.5 6-2.4 9.3-2.6zm-5.5 3.9c-1.6 0-2.3 2-1.1 2.9.3.3.7.4 1.1.4h.7c.2-.9 1-1.6 2-1.6H20c.5 0 .9.2 1.2.4.3.2.5.5.7.9l5-.2c.7 0 1.3-.6 1.3-1.4 0-.3-.1-.5-.2-.7-.2-.4-.7-.7-1.2-.7H14.1z"/>
    </mask>
    <path class="st2" d="M25.6.5l.1 1-.1-1zm-6 .5l-.1-1 .1 1zm10.7 1.9l.9-.5-.9.5zM31 13v1h1v-1h-1zM.9 11.7l.8.6-.8-.6zM9 4.3l.5.9.5-.3v-.6H9zm1.3-.7l-1 .2.2 1.3 1.2-.6-.4-.9zm2.8 4.3l-.6.8.6-.8zm1.1.3v1-1zm.7 0v1h.8l.2-.8-1-.2zM21.2 7l-.6.8.6-.8zm.6.9l-.9.4.3.7h.7l-.1-1.1zm5-.2v1-1zm1.1-2.1l-.9.5.9-.5zM25.5-.5l-6 .5.2 2 6-.5-.2-2zm5.6 2.8C30 .4 27.8-.8 25.5-.6l.2 2c1.6-.1 3 .7 3.8 1.9l1.6-1zm.9 3.1c0-1.1-.3-2.2-.9-3.1l-1.7 1c.4.7.6 1.4.6 2.1h2zm0 7.6V5.4h-2V13h2zM1.6 14H31v-2H1.6v2zM.1 11.1C-.8 12.3.1 14 1.6 14v-2h.1l.1.1v.2L.1 11.1zm8.3-7.7C5.1 5.3 2.3 7.9.1 11.1l1.6 1.1c2.1-2.9 4.7-5.3 7.7-7.1l-1-1.7zm1.6.9v-.6H8v.6h2zm0-.6c0 .2-.2.3-.4.3V2C8.7 2 8 2.8 8 3.7h2zm-.4.3c-.1 0-.2-.1-.3-.3l2-.3c-.1-.8-.8-1.4-1.7-1.4v2zm9.9-4c-3.4.3-6.7 1.2-9.6 2.7l.9 1.8c2.7-1.4 5.8-2.2 8.9-2.5l-.2-2zm-5.8 7.1c-.5-.4-.2-1.2.4-1.2v-2c-2.5 0-3.6 3.1-1.7 4.7l1.3-1.5zm.5.1c-.2 0-.3 0-.5-.2l-1.3 1.5c.5.4 1.2.6 1.8.6V7.2zm.6 0h-.7l.1 2h.7l-.1-2zm2.1-1.6c-1.5 0-2.7 1.1-2.9 2.4l2 .4c.1-.5.5-.8 1-.8v-2zm3.1 0h-3.1v2H20v-2zm1.8.6c-.5-.4-1.1-.6-1.8-.6v2c.2 0 .4.1.6.2l1.2-1.6zm1 1.3c-.2-.5-.5-1-1-1.3l-1.2 1.6c.2.1.3.3.3.4l1.9-.7zm3.9-.8l-5 .2.1 2 5-.2-.1-2zm.4-.4c0 .2-.2.4-.4.4l.1 2c1.3-.1 2.3-1.1 2.3-2.4h-2zm-.1-.2c0 .1.1.1.1.2h2c0-.5-.1-.9-.4-1.3L27 6.1zm-.3-.2c.1 0 .3.1.3.2L28.7 5c-.4-.7-1.2-1.1-2-1.1v2zm-12.6 0h12.6v-2H14.1v2z"/>
</symbol><symbol id="icon-ironing-board" viewBox="0 0 33 32">
    <style>
        .st0{fill:#bcbcbc}
    </style>
    <path class="st0" d="M8.7.1s0-.1.1-.1h.1l.1.1v7.3l-.1.1s-.1 0-.1-.1V.1zM5.8 5.9l.1-1.3c.1-.7.2-1.4.5-2.1h-.1c-.1 0-.2-.1-.2-.2s.1-.2.2-.2H6.6C7 1.3 7.6.7 8.3.2c.1 0 .1-.1.2 0 .1 0 .1.1.1.2v7.1H7.3c-.9 0-1.6-.7-1.5-1.6zm1.4-2.7C7.2 3 7 3 6.9 3c-.2 0-.4.2-.4.4l.1 3.1c0 .2.1.3.3.3.2 0 .3-.1.3-.3l.1-1.2c-.2-.1-.3-.2-.3-.4V4c0-.1 0-.2.1-.3.1-.1.1-.1.2-.1v-.2c0-.1 0-.2-.1-.2z"/>
    <path class="st0" d="M14 10.5H3.5v-3h27.1l1.1.5c.4.2.7.6.6 1 0 .4-.3.8-.8.9l-1.2.3h-9.4V8.5h-7v2zm-9.5-1H13v-1H4.5v1zM22 9.2h8.3l1-.3-1.1-.4h-8.3v.7z"/>
    <path class="st0" d="M4.5 10.5h-4v-3h4v3zm-3-1h2v-1h-2v1z"/>
    <path class="st0" d="M22 19h-9V8h9v11zm-8-1h7V9h-7v9z"/>
    <path class="st0" d="M8 31v.5h.2l.2-.2L8 31zm-2-.5c-.3 0-.5.2-.5.5s.2.5.5.5v-1zm2 0H6v1h2v-1zM25.1 9.2l-4 4.5.7.7 4-4.5-.7-.7zm-7.4 9.1L7.6 30.7l.8.6 10.1-12.4-.8-.6z"/>
    <path class="st0" d="M27.5 31v.5h-.2l-.2-.2.4-.3zm2-.5c.3 0 .5.2.5.5s-.2.5-.5.5v-1zm-2 0h2v1h-2v-1zM10.9 9.7l3 3.8-.8.6-3-3.8.8-.6zm6.9 8.6l10.1 12.4-.8.6L17 18.9l.8-.6z"/>
</symbol><symbol id="icon-kettle" viewBox="0 0 28 31">
    <style>
        .st0{fill:#bcbcbc}.st1{fill:#fff;filter:url(#Adobe_OpacityMaskFilter)}.st2{mask:url(#path-3-inside-1);fill:#bcbcbc}
    </style>
    <path class="st0" d="M16 25c-1.1 0-2-.9-2-2V5c0-1.1.9-2 2-2s2 .9 2 2v18c0 1.1-.9 2-2 2zm0-21c-.6 0-1 .4-1 1v18c0 .6.4 1 1 1s1-.4 1-1V5c0-.6-.4-1-1-1z"/>
    <path class="st0" d="M21 31H5c-.6 0-1-.4-1-1v-2h18v2c0 .6-.4 1-1 1zM5 29v1h16v-1H5z"/>
    
    <mask maskUnits="userSpaceOnUse" x="-1.9" y="-1" width="24.9" height="31" id="path-3-inside-1">
        <path class="st1" d="M4 0H0l4 5.9V29h18V0H4z"/>
    </mask>
    <path class="st2" d="M0 0v-1h-1.9l1 1.6L0 0zm4 5.9h1v-.3l-.2-.2-.8.5zM4 29H3v1h1v-1zm18 0v1h1v-1h-1zm0-29h1v-1h-1v1zM0 1h4v-2H0v2zm4.8 4.4L.8-.5-.9.6l4 5.9 1.7-1.1zM5 29V5.9H3V29h2zm17-1H4v2h18v-2zM21 0v29h2V0h-2zM4.6 1H22v-2H4.6v2zM4 1h.6v-2H4v2z"/>
    <path class="st0" d="M24.7 21H21v-2.7h3.7c.3 0 .5-.2.5-.5V3.2c0-.3-.2-.5-.5-.5H21V0h3.7C26.5 0 28 1.4 28 3.2v14.6c0 1.8-1.5 3.2-3.3 3.2zM22 20h2.7c1.2 0 2.3-1 2.3-2.2V3.2C27 2 26 1 24.7 1H22v.7h2.7c.8 0 1.5.7 1.5 1.5v14.6c0 .8-.7 1.5-1.5 1.5H22v.7z"/>
</symbol><symbol id="icon-location" viewBox="0 0 14 20">
    <path d="M7 .973c-3.86 0-7 3.082-7 6.871 0 4.702 6.264 11.605 6.531 11.897.25.274.688.273.938 0C7.736 19.449 14 12.546 14 7.844 14 4.055 10.86.973 7 .973zM7 11.3c-1.942 0-3.522-1.55-3.522-3.457 0-1.906 1.58-3.457 3.522-3.457 1.942 0 3.522 1.55 3.522 3.457 0 1.906-1.58 3.457-3.522 3.457z"/>
</symbol><symbol id="icon-menu" viewBox="0 0 16 17">
    <path fill-rule="evenodd" clip-rule="evenodd" d="M0 1.973a1 1 0 0 1 1-1h4a1 1 0 0 1 1 1v3.992a1 1 0 0 1-1 1H1a1 1 0 0 1-1-1V1.973zm11-1a1 1 0 0 0-1 1v3.992a1 1 0 0 0 1 1h4a.999.999 0 0 0 1-1V1.973a1 1 0 0 0-1-1h-4zm0 9.986a1 1 0 0 0-1 1v3.992a1 1 0 0 0 1 1h4a1 1 0 0 0 1-1V11.96a1 1 0 0 0-1-1h-4zm-10 0a1 1 0 0 0-1 1v3.992a1 1 0 0 0 1 1h4a1 1 0 0 0 1-1V11.96a1 1 0 0 0-1-1H1z"/>
</symbol><symbol id="icon-microwave" viewBox="0 0 32 22">
    <style>
        .st0{fill:#bcbcbc}.st1{fill:#fff;filter:url(#Adobe_OpacityMaskFilter)}.st2{mask:url(#path-5-inside-1);fill:#bcbcbc}.st3{fill:#fff;filter:url(#Adobe_OpacityMaskFilter_1_)}.st4{mask:url(#path-7-inside-2);fill:#bcbcbc}.st5{fill:#fff;filter:url(#Adobe_OpacityMaskFilter_2_)}.st6{mask:url(#path-9-inside-3);fill:#bcbcbc}
    </style>
    <path class="st0" d="M25 20H0V0h25v20zM1 19h23V1H1v18z"/>
    <path class="st0" d="M32 20h-8V0h8v20zm-7-1h6V1h-6v18z"/>
    <path class="st0" d="M23 18H2V2h21v16zM3 17h19V3H3v14z"/>
    <path class="st0" d="M30 18h-4v-3h4v3zm-3-1h2v-1h-2v1z"/>
    
    <mask maskUnits="userSpaceOnUse" x="25" y="12" width="6" height="3" id="path-5-inside-1">
        <path class="st1" d="M26 13h4v1h-4v-1z"/>
    </mask>
    <path class="st2" d="M26 13v-1h-1v1h1zm4 0h1v-1h-1v1zm0 1v1h1v-1h-1zm-4 0h-1v1h1v-1zm0 0h4v-2h-4v2zm3-1v1h2v-1h-2zm1 0h-4v2h4v-2zm-3 1v-1h-2v1h2z"/>
    
    <mask maskUnits="userSpaceOnUse" x="25" y="10" width="6" height="3" id="path-7-inside-2">
        <path class="st3" d="M26 11h4v1h-4v-1z"/>
    </mask>
    <path class="st4" d="M26 11v-1h-1v1h1zm4 0h1v-1h-1v1zm0 1v1h1v-1h-1zm-4 0h-1v1h1v-1zm0 0h4v-2h-4v2zm3-1v1h2v-1h-2zm1 0h-4v2h4v-2zm-3 1v-1h-2v1h2z"/>
    
    <mask maskUnits="userSpaceOnUse" x="25" y="8" width="6" height="3" id="path-9-inside-3">
        <path class="st5" d="M26 9h4v1h-4V9z"/>
    </mask>
    <path class="st6" d="M26 9V8h-1v1h1zm4 0h1V8h-1v1zm0 1v1h1v-1h-1zm-4 0h-1v1h1v-1zm0 0h4V8h-4v2zm3-1v1h2V9h-2zm1 0h-4v2h4V9zm-3 1V9h-2v1h2z"/>
    <path class="st0" d="M28 7c-1.1 0-2-.9-2-2s.9-2 2-2 2 .9 2 2-.9 2-2 2zm0-3c-.6 0-1 .4-1 1s.4 1 1 1 1-.4 1-1-.4-1-1-1z"/>
    <path class="st0" d="M2 22H1v-2h2z"/>
    <path class="st0" d="M31 22h-1l-1-2h2z"/>
</symbol><symbol id="icon-plus" viewBox="0 0 18 18">
    <path fill-rule="evenodd" clip-rule="evenodd" d="M10.502 2.334a1.5 1.5 0 0 0-3 0V7.5H2.336a1.5 1.5 0 0 0 0 3h5.166v5.168a1.5 1.5 0 0 0 3 0V10.5h5.168a1.5 1.5 0 0 0 0-3h-5.168V2.334z"/>
</symbol><symbol id="icon-refrigerator" viewBox="0 0 14 32">
    <style>
        .st0{fill:#bcbcbc}
    </style>
    <path class="st0" d="M14 32H0V19h14v13zM1 31h12V20H1v11z"/>
    <path class="st0" d="M14 20H0V1c0-.6.4-1 1-1h12c.6 0 1 .4 1 1v19zM1 19h12V1H1v18z"/>
    <path class="st0" d="M2 14h1v3H2z"/>
    <path class="st0" d="M2 22h1v3H2z"/>
</symbol><symbol id="icon-rub" viewBox="0 0 8 11">
    <path d="M2.201 5.956v.984h4.013v.944H2.2v2.522H.875V7.884H.191V6.94h.684v-.984H.191V4.808h.684V.385h3.138c.897 0 1.577.09 2.037.273a2.21 2.21 0 0 1 1.114.95c.278.456.417.96.417 1.511 0 .556-.102 1.016-.308 1.381a2.441 2.441 0 0 1-.82.875 3.364 3.364 0 0 1-1.169.451c-.437.087-.89.13-1.36.13H2.2zm1.723-1.148c.305 0 .597-.023.875-.069.278-.05.522-.139.731-.266.21-.128.376-.299.5-.513.122-.219.184-.5.184-.84 0-.297-.057-.548-.171-.753a1.338 1.338 0 0 0-.458-.499 1.935 1.935 0 0 0-.677-.287c-.26-.06-.54-.089-.84-.089H2.2v3.316h1.723z"/>
</symbol><symbol id="icon-search" viewBox="0 0 56.966 56.966">
    <path d="M55.146 51.887L41.588 37.786A22.926 22.926 0 0 0 46.984 23c0-12.682-10.318-23-23-23s-23 10.318-23 23 10.318 23 23 23c4.761 0 9.298-1.436 13.177-4.162l13.661 14.208c.571.593 1.339.92 2.162.92.779 0 1.518-.297 2.079-.837a3.004 3.004 0 0 0 .083-4.242zM23.984 6c9.374 0 17 7.626 17 17s-7.626 17-17 17-17-7.626-17-17 7.626-17 17-17z"/>
</symbol><symbol id="icon-stove" viewBox="0 0 32 32">
    <style>
        .st0{fill:#bcbcbc}
    </style>
    <path class="st0" d="M32 28H0V2C0 .9.9 0 2 0h28c1.1 0 2 .9 2 2v26zM1 27h30V2c0-.6-.4-1-1-1H2c-.6 0-1 .4-1 1v25z"/>
    <path class="st0" d="M30 32H2c-1.1 0-2-.9-2-2v-3h32v3c0 1.1-.9 2-2 2zM1 28v2c0 .6.4 1 1 1h28c.6 0 1-.4 1-1v-2H1z"/>
    <path class="st0" d="M9.3 12.7C6.4 12.7 4 10.3 4 7.3 4 4.4 6.4 2 9.3 2s5.3 2.4 5.3 5.3c.1 3-2.3 5.4-5.3 5.4zm0-9.7C6.9 3 5 4.9 5 7.3s1.9 4.3 4.3 4.3 4.3-1.9 4.3-4.3C13.7 4.9 11.7 3 9.3 3z"/>
    <path class="st0" d="M22.7 12.7c-2.9 0-5.3-2.4-5.3-5.3s2.4-5.3 5.3-5.3C25.6 2 28 4.4 28 7.3c0 3-2.4 5.4-5.3 5.4zm0-9.7c-2.4 0-4.3 1.9-4.3 4.3s1.9 4.3 4.3 4.3S27 9.7 27 7.3 25.1 3 22.7 3z"/>
    <path class="st0" d="M9.7 23.7c-2.4 0-4.3-1.9-4.3-4.3C5.3 17 7.3 15 9.7 15s4.3 1.9 4.3 4.3c0 2.5-1.9 4.4-4.3 4.4zm0-7.7c-1.8 0-3.3 1.5-3.3 3.3s1.5 3.3 3.3 3.3 3.3-1.5 3.3-3.3S11.5 16 9.7 16z"/>
    <path class="st0" d="M22.3 23.7c-2.4 0-4.3-1.9-4.3-4.3s1.9-4.3 4.3-4.3 4.3 1.9 4.3 4.3c.1 2.4-1.9 4.3-4.3 4.3zm0-7.7c-1.8 0-3.3 1.5-3.3 3.3s1.5 3.3 3.3 3.3 3.3-1.5 3.3-3.3-1.4-3.3-3.3-3.3z"/>
    <path class="st0" d="M11 30.7c-.6 0-1-.4-1-1s.4-1 1-1 1 .4 1 1-.4 1-1 1zm0-1.5v.5-.5z"/>
    <path class="st0" d="M14.3 30.7c-.6 0-1-.4-1-1s.4-1 1-1 1 .4 1 1-.4 1-1 1zm0-1.5v.5-.5z"/>
    <path class="st0" d="M17.7 30.7c-.6 0-1-.4-1-1s.4-1 1-1 1 .4 1 1-.5 1-1 1zm0-1.5v.5-.5z"/>
    <path class="st0" d="M21 30.7c-.6 0-1-.4-1-1s.4-1 1-1 1 .4 1 1-.4 1-1 1zm0-1.5v.5-.5z"/>
</symbol><symbol id="icon-table" viewBox="0 0 32 18">
    <style>
        .st0{fill:#ff8c48}
    </style>
    <path class="st0" d="M31 3H1c-.6 0-1-.4-1-1V1c0-.6.4-1 1-1h30c.6 0 1 .4 1 1v1c0 .6-.4 1-1 1zM1 1v1h30V1H1zm0-.5V1 .5z"/>
    <path class="st0" d="M28 6H4V2h24v4zM5 5h22V3H5v2z"/>
    <path class="st0" d="M5.3 18H4V5.3h2z"/>
    <path class="st0" d="M28 18h-1.3L26 5.3h2z"/>
</symbol><symbol id="icon-toilet" viewBox="0 0 19 32">
    <style>
        .st0{fill:#bcbcbc}
    </style>
    <path class="st0" d="M19 19H0v-5h19v5zM1 18h17v-3H1v3z"/>
    <path class="st0" d="M18 15H1V2h17v13zM2 14h15V3H2v11z"/>
    <path class="st0" d="M18 3H1V0h17v3zM2 2h15V1H2v1z"/>
    <path class="st0" d="M12 32H7v-6h5v6zm-4-1h3v-4H8v4z"/>
    <path class="st0" d="M10.9 27H8.1c-3.8 0-6.9-3.7-7.1-8.5V18h17v.5c-.2 4.8-3.3 8.5-7.1 8.5zM2 19c.4 4 3 7 6 7h2.8c3.1 0 5.7-3 6-7H2z"/>
    <path class="st0" d="M16 4h2v1h-2z"/>
</symbol><symbol id="icon-tv" viewBox="0 0 32 24">
    <style>
        .st0{fill:#bcbcbc}
    </style>
    <path class="st0" d="M32 19H0V0h32v19zM1 18h30V1H1v17z"/>
    <path class="st0" d="M30 17H2V2h28v15zM3 16h26V3H3v13z"/>
    <path class="st0" d="M19 22h-6v-4h6v4zm-5-1h4v-2h-4v2z"/>
    <path class="st0" d="M22 24H10v-3h12v3zm-11-1h10v-1H11v1z"/>
</symbol><symbol id="icon-up" viewBox="0 0 62 62">
    <g opacity=".5">
        <circle opacity=".5" cx="31" cy="31" r="31"/>
        <path d="M27 44.118h9v-8.824h6L31.5 25 21 35.294h6v8.824z"/>
        <path d="M42 18H21v2.941h21V18z"/>
    </g>
</symbol><symbol id="icon-view" viewBox="0 0 17 10">
    <path d="M15.98 5.305C15.835 5.497 12.436 10 8.094 10S.353 5.497.21 5.305a.51.51 0 0 1 0-.61C.353 4.503 3.753 0 8.095 0c4.342 0 7.741 4.503 7.884 4.695a.51.51 0 0 1 0 .61zm-7.885-4.27C4.897 1.034 2.127 4.022 1.307 5c.819.978 3.583 3.966 6.788 3.966 3.198 0 5.968-2.989 6.788-3.966-.819-.978-3.583-3.966-6.788-3.966z"/>
    <path d="M8.095 8.104c-1.742 0-3.16-1.393-3.16-3.104s1.418-3.103 3.16-3.103c1.742 0 3.159 1.392 3.159 3.103 0 1.711-1.417 3.104-3.16 3.104zm0-5.173c-1.162 0-2.106.928-2.106 2.069 0 1.14.944 2.069 2.106 2.069C9.256 7.069 10.2 6.141 10.2 5c0-1.14-.945-2.069-2.106-2.069z"/>
</symbol><symbol id="icon-washer" viewBox="0 0 24 32">
    <style>
        .st0{fill:#ff8c48}
    </style>
    <path class="st0" d="M24 28H0V5h24v23zM1 27h22V6H1v21z"/>
    <path class="st0" d="M24 32H0v-5h24v5zM1 31h22v-3H1v3z"/>
    <path class="st0" d="M24 6H0V0h24v6zM1 5h22V1H1v4z"/>
    <path class="st0" d="M11.5 24C7.4 24 4 20.6 4 16.5S7.4 9 11.5 9s7.5 3.4 7.5 7.5-3.4 7.5-7.5 7.5zm0-14C7.9 10 5 12.9 5 16.5S7.9 23 11.5 23s6.5-2.9 6.5-6.5-2.9-6.5-6.5-6.5z"/>
    <path class="st0" d="M11.5 22c-3 0-5.5-2.5-5.5-5.5S8.5 11 11.5 11s5.5 2.5 5.5 5.5-2.5 5.5-5.5 5.5zm0-10C9 12 7 14 7 16.5S9 21 11.5 21s4.5-2 4.5-4.5-2-4.5-4.5-4.5z"/>
    <path class="st0" d="M12 4c-.6 0-1-.4-1-1s.4-1 1-1 1 .4 1 1-.4 1-1 1zm0-1.5V3v-.5z"/>
    <path class="st0" d="M15 2.5h1v1h-1z"/>
    <path class="st0" d="M17 2.5h1v1h-1z"/>
    <path class="st0" d="M6 2.5h1v1H6z"/>
    <path class="st0" d="M8 2.5h1v1H8z"/>
</symbol></svg>