<?xml version="1.0" encoding="UTF-8"?><!DOCTYPE svg PUBLIC "-//W3C//DTD SVG 1.1//EN" "http://www.w3.org/Graphics/SVG/1.1/DTD/svg11.dtd"><svg xmlns="http://www.w3.org/2000/svg"><defs>
        <linearGradient id="a" x1="12" y1="9.103" x2="12" y2="21.621" gradientUnits="userSpaceOnUse">
            <stop stop-color="#40D6A2"/>
            <stop offset="1" stop-color="#28C9C8"/>
        </linearGradient>
    </defs><symbol id="icon-arrow-down-shaded" viewBox="0 0 9 5">
    <path d="M4.5 4.5L0 0h9L4.5 4.5z"/>
</symbol><symbol id="icon-arrow-down" viewBox="0 0 10 6">
    <style>
        .st0{fill:#616161}
    </style>
    <path class="st0" d="M5 5.3L.6.9C.4.7.4.4.6.2c.2-.2.6-.2.8 0L5 3.9 8.6.2c.2-.2.6-.2.8 0 .2.2.2.5 0 .7L5 5.3z"/>
</symbol><symbol id="icon-burger" viewBox="0 0 16 16">
    <path fill-rule="evenodd" clip-rule="evenodd" d="M0 1.973a1 1 0 0 1 1-1h14a1 1 0 0 1 1 1v.996a.998.998 0 0 1-1 1H1a1 1 0 0 1-1-1v-.996zm0 5.99a1 1 0 0 1 1-1h14a1 1 0 0 1 1 1v.996a1 1 0 0 1-1 1H1a1 1 0 0 1-1-1v-.996zm1 4.992a1 1 0 0 0-1 1v.996a1 1 0 0 0 1 1h14a.998.998 0 0 0 1-1v-.996a1 1 0 0 0-1-1H1z"/>
</symbol><symbol id="icon-clock" viewBox="0 0 16 16">
    <path d="M15.471 8c0 4.143-3.352 7.5-7.485 7.5C3.852 15.5.5 12.143.5 8S3.852.5 7.986.5C12.119.5 15.47 3.857 15.47 8z"/>
    <path d="M7.986 5v4h1.997" stroke-linecap="round"/>
    <path d="M7.486 2a.5.5 0 0 0 1 0h-1zm0-1v1h1V1h-1z"/>
    <path d="M7.486 14a.5.5 0 0 1 1 0h-1zm0 1v-1h1v1h-1z"/>
    <path d="M1.996 8.5a.5.5 0 0 0 0-1v1zm-.998 0h.998v-1H.998v1z"/>
    <path d="M13.975 8.5a.5.5 0 1 1 0-1v1zm.998 0h-.998v-1h.998v1z"/>
    <path d="M4.105 12.595a.501.501 0 0 0-.707-.707l.707.707zm-.707.708l.707-.708-.707-.707-.706.707.706.708z"/>
    <path d="M12.572 4.112a.499.499 0 1 1-.706-.707l.707.707zm.707-.707l-.707.707-.706-.707.707-.708.706.708z"/>
    <path d="M12.572 11.888a.499.499 0 1 0-.706.707l.707-.707zm.707.707l-.707-.707-.706.707.707.708.706-.708z"/>
    <path d="M4.105 3.405a.501.501 0 0 1-.707.707l.707-.707zm-.707-.708l.707.708-.707.707-.706-.707.706-.708z"/>
</symbol><symbol id="icon-development" viewBox="0 0 78 10">
    <path d="M61.443 0v1.993c.739.23 1.367.703 1.772 1.336.405.632.56 1.382.439 2.114a3.082 3.082 0 0 1-1.104 1.88 3.355 3.355 0 0 1-2.118.745 3.355 3.355 0 0 1-2.118-.745 3.082 3.082 0 0 1-1.103-1.88 2.998 2.998 0 0 1 .439-2.114 3.242 3.242 0 0 1 1.771-1.336V0c-1.29.24-2.44.93-3.225 1.935a4.882 4.882 0 0 0-1.025 3.503 4.969 4.969 0 0 0 1.708 3.251A5.429 5.429 0 0 0 60.432 10c1.314 0 2.581-.467 3.554-1.31a4.97 4.97 0 0 0 1.708-3.252 4.882 4.882 0 0 0-1.025-3.503A5.322 5.322 0 0 0 61.443 0z"/>
    <path d="M10.121 2.071V.135H0v9.663h10.121V7.865H2.123V5.933h5.975V4l-5.975.014V2.07h7.998z"/>
    <path d="M34.608 2.071V.135H24.486v9.663h10.122v-1.93l-7.998.002V5.933h5.973V4H26.61V2.071h7.998z"/>
    <path fill-rule="evenodd" clip-rule="evenodd" d="M12.919.135l3.362 2.75-1.52 1.242-2.517-2.058V.135h.675zm-.675 9.663V7.865l9.444-7.73h.675v1.932l-3.542 2.9 3.542 2.898v1.933h-.675L17.304 6.21l-4.385 3.59h-.675z"/>
    <path d="M77.95.135h-2.073v5.798L68.503.135h-.675v9.664h2.123V4.01l7.374 5.788H78V.135h-.05z"/>
    <path d="M48.397 7.868V.135h-2.124v9.663h7.423v-1.93h-5.3z"/>
    <path d="M38.853 7.868V.135H36.73v9.574h.005v.09h7.418v-1.93h-5.3z"/>
</symbol><symbol id="icon-heart" viewBox="0 0 18 16">
    <path d="M16.974 5.175l-.747.072.003.027.004.026.74-.125zM8.956 3l-.637.396.63 1.014.64-1.008L8.956 3zm-7.93 2.174l.74.128.005-.028.002-.028-.746-.072zm.137 1.587l.727-.183-.727.183zm2.215 3.478l.487-.57-.487.57zM8.952 15l-.487.57.483.413.486-.409L8.952 15zm5.67-4.76l.482.574.005-.004-.487-.57zm2.215-3.48l-.727-.182.727.183zm.883-1.657C17.453 2.34 15.347.25 12.643.25v1.5c1.851 0 3.384 1.421 3.584 3.497l1.493-.144zM12.643.25c-1.77 0-3.4.897-4.32 2.348l1.266.804c.642-1.011 1.79-1.652 3.054-1.652V.25zm-3.05 2.354A4.947 4.947 0 0 0 5.357.25v1.5c1.231 0 2.323.617 2.962 1.646l1.274-.792zM5.357.25C2.654.25.547 2.34.28 5.102l1.493.144c.2-2.075 1.733-3.496 3.584-3.496V.25zM.287 5.047c-.034.2-.11.869.148 1.896l1.455-.365c-.202-.806-.127-1.263-.124-1.276L.288 5.047zm.148 1.896c.373 1.486 1.23 2.821 2.456 3.867l.974-1.141c-1.009-.86-1.684-1.931-1.975-3.09l-1.455.364zm2.456 3.867l5.574 4.76.974-1.14-5.574-4.76-.974 1.14zm6.543 4.764l5.67-4.76-.964-1.149-5.67 4.76.964 1.15zm5.675-4.764c1.226-1.046 2.083-2.38 2.456-3.867l-1.455-.365c-.291 1.16-.966 2.231-1.975 3.091l.974 1.141zm2.456-3.867c.258-1.028.182-1.696.148-1.894l-1.479.251c.003.016.078.472-.124 1.278l1.455.365z"/>
</symbol><symbol id="icon-location" viewBox="0 0 14 20">
    <path d="M7 .973c-3.86 0-7 3.082-7 6.871 0 4.702 6.264 11.605 6.531 11.897.25.274.688.273.938 0C7.736 19.449 14 12.546 14 7.844 14 4.055 10.86.973 7 .973zM7 11.3c-1.942 0-3.522-1.55-3.522-3.457 0-1.906 1.58-3.457 3.522-3.457 1.942 0 3.522 1.55 3.522 3.457 0 1.906-1.58 3.457-3.522 3.457z"/>
</symbol><symbol id="icon-logo" viewBox="0 0 24 33">
    <path fill-rule="evenodd" clip-rule="evenodd" d="M18.285 15.361v-.08a6.263 6.263 0 0 0-.305-1.865 6.175 6.175 0 0 0-.421-.982c2.843 1.824 4.726 5.004 4.726 8.617 0 3.514-1.777 6.613-4.484 8.459a7.701 7.701 0 0 0 1.914-5.09 7.728 7.728 0 0 0-.625-3.055 7.79 7.79 0 0 0-1.817-2.586 6.225 6.225 0 0 0 1.008-3.183c0-.078.004-.156.004-.235zm-4.148 6.244c.402-.353.82-.693 1.21-.99.282-.215.548-.408.778-.57A6.016 6.016 0 0 1 18 24.42c0 3.33-2.691 6.02-6 6.02a6.011 6.011 0 0 1-6-6.02c0-1.72.715-3.272 1.867-4.37.485.32 1.098.741 1.711 1.202.05.039.106.078.156.117.47.356.93.727 1.332 1.08.645.57 1.133 1.098 1.22 1.447.089-.433.507-.986 1.066-1.554.242-.246.507-.494.785-.736zm-8.422-6.097v-.147c0-1.058.258-2.052.726-2.927-2.843 1.824-4.726 5.004-4.726 8.617 0 3.514 1.777 6.613 4.484 8.459a7.726 7.726 0 0 1-1.914-5.09c0-2.225.938-4.23 2.442-5.64a6.218 6.218 0 0 1-1.012-3.272zm8.738-5.903a19.889 19.889 0 0 1-1.976-2.978 21.012 21.012 0 0 1-.422-.842c-.227.397-.461.78-.7 1.145a30.302 30.302 0 0 1-2 2.746A6.32 6.32 0 0 1 12 9.104c.07 0 .137.003.203.003.797.026 1.55.202 2.25.498zM12.285 0c-.07 1.178-.476 2.44-1.062 3.678-1.336 2.83-3.614 5.54-4.938 6.865C2.543 12.565 0 16.513 0 21.051 0 27.65 5.371 33 12 33s12-5.35 12-11.95c0-4.536-2.543-8.486-6.285-10.507-.676-.563-1.63-1.543-2.547-2.83-.793-1.111-1.563-2.451-2.105-3.95l-.149-.431a12.499 12.499 0 0 1-.273-.943A12.271 12.271 0 0 1 12.285 0zM12 10.81c-2.523 0-4.57 2.038-4.57 4.551 0 1.27.52 2.414 1.36 3.24a38.019 38.019 0 0 1 2.741 2.005c.211.167.418.341.617.517.2-.2.403-.393.606-.576a24.64 24.64 0 0 1 2.445-1.934 4.513 4.513 0 0 0 1.371-3.252c0-2.513-2.047-4.55-4.57-4.55z"/>
    
</symbol><symbol id="icon-menu" viewBox="0 0 16 17">
    <path fill-rule="evenodd" clip-rule="evenodd" d="M0 1.973a1 1 0 0 1 1-1h4a1 1 0 0 1 1 1v3.992a1 1 0 0 1-1 1H1a1 1 0 0 1-1-1V1.973zm11-1a1 1 0 0 0-1 1v3.992a1 1 0 0 0 1 1h4a.999.999 0 0 0 1-1V1.973a1 1 0 0 0-1-1h-4zm0 9.986a1 1 0 0 0-1 1v3.992a1 1 0 0 0 1 1h4a1 1 0 0 0 1-1V11.96a1 1 0 0 0-1-1h-4zm-10 0a1 1 0 0 0-1 1v3.992a1 1 0 0 0 1 1h4a1 1 0 0 0 1-1V11.96a1 1 0 0 0-1-1H1z"/>
</symbol><symbol id="icon-plus" viewBox="0 0 18 18">
    <path fill-rule="evenodd" clip-rule="evenodd" d="M10.502 2.334a1.5 1.5 0 0 0-3 0V7.5H2.336a1.5 1.5 0 0 0 0 3h5.166v5.168a1.5 1.5 0 0 0 3 0V10.5h5.168a1.5 1.5 0 0 0 0-3h-5.168V2.334z"/>
</symbol><symbol id="icon-rub" viewBox="0 0 8 11">
    <path d="M2.201 5.956v.984h4.013v.944H2.2v2.522H.875V7.884H.191V6.94h.684v-.984H.191V4.808h.684V.385h3.138c.897 0 1.577.09 2.037.273a2.21 2.21 0 0 1 1.114.95c.278.456.417.96.417 1.511 0 .556-.102 1.016-.308 1.381a2.441 2.441 0 0 1-.82.875 3.364 3.364 0 0 1-1.169.451c-.437.087-.89.13-1.36.13H2.2zm1.723-1.148c.305 0 .597-.023.875-.069.278-.05.522-.139.731-.266.21-.128.376-.299.5-.513.122-.219.184-.5.184-.84 0-.297-.057-.548-.171-.753a1.338 1.338 0 0 0-.458-.499 1.935 1.935 0 0 0-.677-.287c-.26-.06-.54-.089-.84-.089H2.2v3.316h1.723z"/>
</symbol><symbol id="icon-search" viewBox="0 0 56.966 56.966">
    <path d="M55.146 51.887L41.588 37.786A22.926 22.926 0 0 0 46.984 23c0-12.682-10.318-23-23-23s-23 10.318-23 23 10.318 23 23 23c4.761 0 9.298-1.436 13.177-4.162l13.661 14.208c.571.593 1.339.92 2.162.92.779 0 1.518-.297 2.079-.837a3.004 3.004 0 0 0 .083-4.242zM23.984 6c9.374 0 17 7.626 17 17s-7.626 17-17 17-17-7.626-17-17 7.626-17 17-17z"/>
</symbol><symbol id="icon-up" viewBox="0 0 62 62">
    <g opacity=".5">
        <circle opacity=".5" cx="31" cy="31" r="31"/>
        <path d="M27 44.118h9v-8.824h6L31.5 25 21 35.294h6v8.824z"/>
        <path d="M42 18H21v2.941h21V18z"/>
    </g>
</symbol><symbol id="icon-view" viewBox="0 0 17 10">
    <path d="M15.98 5.305C15.835 5.497 12.436 10 8.094 10S.353 5.497.21 5.305a.51.51 0 0 1 0-.61C.353 4.503 3.753 0 8.095 0c4.342 0 7.741 4.503 7.884 4.695a.51.51 0 0 1 0 .61zm-7.885-4.27C4.897 1.034 2.127 4.022 1.307 5c.819.978 3.583 3.966 6.788 3.966 3.198 0 5.968-2.989 6.788-3.966-.819-.978-3.583-3.966-6.788-3.966z"/>
    <path d="M8.095 8.104c-1.742 0-3.16-1.393-3.16-3.104s1.418-3.103 3.16-3.103c1.742 0 3.159 1.392 3.159 3.103 0 1.711-1.417 3.104-3.16 3.104zm0-5.173c-1.162 0-2.106.928-2.106 2.069 0 1.14.944 2.069 2.106 2.069C9.256 7.069 10.2 6.141 10.2 5c0-1.14-.945-2.069-2.106-2.069z"/>
</symbol></svg>