<svg width="26" height="26" viewBox="0 0 26 26" fill="none" xmlns="http://www.w3.org/2000/svg">
    <path d="M13 26c7.18 0 13-5.82 13-13S20.18 0 13 0 0 5.82 0 13s5.82 13 13 13z" fill="#4D76A1"/>
    <path fill-rule="evenodd" clip-rule="evenodd" d="M12.488 18.701h1.018s.308-.034.465-.203c.145-.156.14-.448.14-.448s-.02-1.37.614-1.571c.626-.199 1.429 1.323 2.28 1.908.643.443 1.133.346 1.133.346l2.275-.032s1.19-.073.626-1.01c-.046-.078-.329-.694-1.692-1.962-1.427-1.327-1.236-1.112.483-3.407 1.047-1.398 1.466-2.25 1.335-2.616-.125-.348-.895-.256-.895-.256l-2.562.016s-.19-.026-.33.058c-.139.083-.227.276-.227.276s-.406 1.081-.947 2c-1.14 1.942-1.597 2.044-1.783 1.924-.434-.281-.326-1.129-.326-1.73 0-1.882.285-2.666-.554-2.869-.279-.067-.484-.112-1.196-.119-.914-.01-1.688.003-2.126.218-.292.143-.517.462-.38.48.17.023.553.103.757.38.262.359.253 1.162.253 1.162s.15 2.214-.352 2.49c-.346.188-.82-.197-1.837-1.958-.521-.902-.914-1.899-.914-1.899s-.076-.186-.212-.286c-.164-.12-.393-.159-.393-.159l-2.435.016s-.366.01-.5.17c-.12.141-.01.434-.01.434s1.907 4.467 4.065 6.719c1.98 2.064 4.227 1.928 4.227 1.928z" fill="#fff"/>
</svg>
