<svg width="26" height="26" viewBox="0 0 26 26" fill="none" xmlns="http://www.w3.org/2000/svg">
    <path d="M13 26c7.18 0 13-5.82 13-13S20.18 0 13 0 0 5.82 0 13s5.82 13 13 13z" fill="#D42428"/>
    <path d="M22.155 3.805c5.068 5.077 5.069 13.308 0 18.386-5.068 5.076-13.286 5.077-18.354 0L22.155 3.805z" fill="#CC202D"/>
    <path d="M25.698 15.604L19.275 9.17l-7.576.864-4.582 7.106 8.562 8.577a13.004 13.004 0 0 0 10.019-10.113z" fill="#BA202E"/>
    <path d="M19.767 10.493A1.97 1.97 0 0 0 17.8 8.52H8.562a1.97 1.97 0 0 0-1.968 1.973v5.29a1.97 1.97 0 0 0 1.968 1.974h9.236a1.97 1.97 0 0 0 1.969-1.973v-5.291zm-7.904 4.877V10.4l3.762 2.486-3.762 2.484z" fill="#fff"/>
</svg>
